<?xml version="1.0" standalone="no"?>
<!DOCTYPE svg PUBLIC "-//W3C//DTD SVG 20010904//EN"
 "http://www.w3.org/TR/2001/REC-SVG-20010904/DTD/svg10.dtd">
<svg version="1.0" xmlns="http://www.w3.org/2000/svg"
 width="350.000000pt" height="437.000000pt" viewBox="0 0 350.000000 437.000000"
 preserveAspectRatio="xMidYMid meet">

<g transform="translate(0.000000,437.000000) scale(0.100000,-0.100000)"
fill="#000000" stroke="none">
<path d="M2330 3561 c-14 -5 -47 -13 -73 -20 -69 -16 -187 -100 -231 -164 -40
-58 -95 -213 -96 -267 0 -19 12 -62 26 -95 14 -33 26 -65 28 -72 1 -7 5 -16 9
-19 4 -4 7 -12 7 -18 0 -6 -5 -5 -12 2 -16 16 -28 15 -28 -3 0 -9 7 -18 16
-22 11 -4 14 -14 10 -32 -3 -14 -3 -20 0 -13 9 19 24 14 24 -9 0 -13 4 -18 13
-13 8 6 8 3 -1 -9 -8 -9 -10 -22 -6 -28 4 -8 3 -9 -4 -5 -7 4 -12 2 -12 -3 0
-6 9 -11 20 -11 11 0 20 -7 20 -15 0 -8 6 -15 14 -15 8 0 17 -15 20 -35 4 -19
20 -60 36 -91 27 -51 29 -58 16 -82 -7 -15 -17 -40 -22 -56 -8 -24 -19 -32
-74 -51 -36 -12 -75 -27 -87 -33 -14 -8 -42 -10 -76 -6 -82 10 -151 -10 -254
-74 -140 -87 -202 -131 -213 -152 -6 -11 -27 -29 -48 -39 -20 -11 -59 -43 -87
-72 -42 -44 -110 -88 -120 -77 -2 2 1 26 6 53 5 28 12 68 15 90 6 38 47 146
101 260 31 67 30 85 -4 85 -33 0 -78 -29 -78 -50 0 -17 -26 -17 -92 1 -34 9
-46 19 -64 53 -12 22 -25 57 -29 76 l-6 35 -22 -35 c-12 -19 -39 -87 -60 -150
-21 -63 -50 -136 -65 -161 -46 -77 -97 -206 -113 -281 -11 -52 -24 -82 -49
-113 -44 -53 -65 -112 -72 -201 -11 -133 33 -194 158 -220 41 -8 85 -13 99
-11 53 10 200 49 320 86 69 22 143 44 165 50 27 7 69 36 130 91 50 44 97 80
107 80 23 0 36 -66 48 -255 6 -88 17 -191 24 -228 12 -65 12 -71 -11 -127 -25
-62 -43 -143 -43 -192 0 -16 -11 -46 -25 -66 -33 -48 -32 -71 6 -118 32 -41
32 -48 5 -119 -8 -22 -15 -65 -16 -96 0 -46 -8 -73 -45 -147 -25 -50 -45 -94
-45 -99 0 -4 -35 -39 -77 -78 -42 -38 -102 -94 -132 -123 l-56 -52 410 2 c376
3 414 5 453 22 61 27 40 40 -39 26 -35 -7 -72 -16 -81 -21 -19 -10 -71 -12
-80 -4 -13 14 7 57 33 70 35 19 43 19 36 0 -4 -8 -2 -17 3 -20 6 -4 10 0 10 8
0 45 120 82 260 82 58 0 108 4 112 9 7 10 76 -92 98 -143 l12 -31 460 0 c363
0 459 3 456 13 -3 6 -69 51 -147 98 -78 47 -158 102 -178 122 l-35 37 45 50
c26 29 56 77 72 117 14 38 46 105 71 150 41 78 45 90 56 205 11 118 13 532 5
838 -5 150 -15 205 -74 384 -20 61 -35 89 -67 121 -57 57 -174 131 -343 217
-121 63 -142 77 -147 100 -3 15 -21 44 -40 65 l-34 39 14 67 c7 37 21 81 29
97 8 16 15 38 15 49 0 11 5 23 10 26 6 4 8 10 5 15 -8 12 6 41 16 34 5 -3 9 0
9 6 0 6 5 8 10 5 6 -3 10 3 10 14 0 10 3 27 7 37 6 16 7 16 14 -2 7 -18 8 -18
8 0 1 12 6 16 16 12 9 -3 15 0 15 9 0 26 -18 25 -49 -1 -34 -28 -43 -16 -11
16 11 11 20 26 20 33 0 6 14 31 30 55 43 65 47 114 16 202 -14 39 -23 76 -20
82 5 7 2 8 -6 3 -10 -6 -12 -3 -8 13 3 12 3 21 -1 20 -10 -3 -101 87 -101 100
0 6 -11 14 -25 18 -13 3 -27 14 -30 23 -8 26 -52 64 -78 69 -56 9 -114 11
-137 3z m-93 -47 c-3 -3 -12 -4 -19 -1 -8 3 -5 6 6 6 11 1 17 -2 13 -5z m418
-144 c10 -11 16 -20 13 -20 -3 0 -13 9 -23 20 -10 11 -16 20 -13 20 3 0 13 -9
23 -20z m-252 -67 c15 -9 -4 -21 -26 -16 -18 4 -17 2 6 -11 15 -8 43 -18 61
-21 24 -5 32 -12 32 -27 -1 -12 6 -23 14 -25 11 -3 11 -2 3 4 -7 5 -9 14 -4
22 13 21 31 -19 31 -68 0 -64 -3 -67 -70 -63 -41 2 -67 -2 -83 -13 -13 -8 -27
-12 -32 -8 -4 5 -5 2 -1 -4 4 -7 17 -13 29 -14 20 0 21 -1 3 -8 -18 -7 -18 -8
-2 -14 10 -4 27 -2 38 4 30 16 108 13 126 -5 15 -15 9 -16 -70 -16 -48 0 -99
-5 -113 -10 -26 -10 -27 -13 -23 -68 3 -31 10 -68 17 -81 11 -20 10 -26 -8
-45 -18 -18 -24 -19 -42 -8 -11 7 -25 10 -31 6 -8 -5 -9 -1 -4 12 4 10 10 47
13 82 5 50 2 69 -13 97 -10 19 -25 35 -34 35 -11 0 -12 3 -3 8 19 12 -2 34
-36 37 -32 2 -56 15 -29 15 18 0 29 22 32 60 4 43 10 53 60 103 28 28 54 46
62 43 8 -3 14 -1 14 5 0 9 63 3 83 -8z m-139 -8 c-6 -16 -24 -21 -24 -7 0 11
11 22 21 22 5 0 6 -7 3 -15z m-65 -278 c11 -10 3 -13 -40 -17 -30 -3 -60 -4
-66 -2 -21 7 -15 20 15 31 30 11 69 6 91 -12z m216 -27 c3 -5 1 -10 -4 -10 -6
0 -11 5 -11 10 0 6 2 10 4 10 3 0 8 -4 11 -10z m-49 -16 c-3 -8 -2 -12 3 -9 5
3 12 1 16 -5 3 -5 15 -10 26 -10 11 0 18 4 15 8 -2 4 4 9 15 9 11 1 23 -5 26
-13 6 -16 56 -11 80 8 9 7 13 0 17 -24 4 -18 5 -40 3 -48 -11 -46 -21 -76 -27
-85 -4 -5 -11 -32 -15 -59 -5 -36 -4 -46 6 -41 7 5 10 3 7 -6 -3 -8 -13 -13
-22 -13 -10 1 -16 -6 -16 -17 0 -10 -6 -19 -12 -19 -7 -1 -26 -20 -43 -43 -23
-33 -30 -38 -33 -24 -6 31 7 67 25 67 15 0 14 3 -5 23 -20 20 -32 22 -122 22
-55 0 -100 3 -100 7 0 8 57 45 120 78 23 12 24 12 11 -3 -12 -15 -11 -17 7
-17 37 0 47 25 33 83 -6 29 -14 63 -16 77 -2 14 -7 35 -11 48 -4 14 -2 22 6
22 7 0 10 -7 6 -16z m-159 0 c-3 -3 -12 -4 -19 -1 -8 3 -5 6 6 6 11 1 17 -2
13 -5z m27 -11 c-13 -32 -15 -166 -2 -192 13 -24 13 -24 -44 -64 -17 -11 -17
-16 -3 -67 18 -66 17 -60 6 -60 -5 0 -13 10 -17 22 -3 12 -15 29 -25 37 -17
15 -48 100 -52 144 -1 9 -5 17 -10 17 -4 0 -6 4 -3 9 4 5 1 11 -5 13 -7 2 -12
24 -13 48 -1 43 0 45 27 45 15 1 36 9 47 18 23 19 34 22 24 6 -4 -8 1 -9 17
-4 28 9 51 30 42 39 -4 3 -1 6 6 6 9 0 11 -6 5 -17z m136 -143 c0 -5 -4 -10
-10 -10 -5 0 -10 5 -10 10 0 6 5 10 10 10 6 0 10 -4 10 -10z m-75 -190 c-3 -5
-11 -10 -16 -10 -6 0 -7 5 -4 10 3 6 11 10 16 10 6 0 7 -4 4 -10z m40 0 c-3
-5 -10 -10 -16 -10 -5 0 -9 5 -9 10 0 6 7 10 16 10 8 0 12 -4 9 -10z m41 -35
c-27 -21 -53 -20 -36 0 7 8 22 15 34 15 21 -1 21 -1 2 -15z m58 -70 c-25 -53
-58 -75 -115 -75 -26 0 -51 5 -54 10 -4 6 -10 8 -15 5 -7 -4 -16 9 -25 35 -1
3 -5 13 -10 23 -10 25 -3 29 29 17 25 -9 70 -7 134 6 15 3 20 9 15 17 -4 7 1
5 12 -3 16 -13 19 -13 29 3 18 29 19 0 0 -38z m88 -87 c-9 -9 -9 -15 1 -27 10
-14 10 -14 -5 -3 -16 13 -16 11 -8 -18 10 -34 3 -52 -45 -119 -24 -32 -34 -81
-17 -81 4 0 17 16 30 35 22 35 52 47 52 21 0 -26 -41 -65 -101 -96 -68 -34
-69 -35 -69 -17 0 8 -12 26 -27 40 -52 49 -73 73 -73 80 0 4 -16 28 -36 53
-43 57 -77 121 -71 137 6 18 108 -95 103 -114 -2 -9 -1 -21 3 -26 11 -16 64
-53 75 -53 6 0 2 7 -8 15 -19 14 -19 15 7 15 15 0 27 -5 27 -10 0 -26 68 37
84 79 18 43 76 115 85 105 3 -2 -1 -10 -7 -16z m-1272 -8 c0 -5 -4 -10 -10
-10 -5 0 -10 5 -10 10 0 6 5 10 10 10 6 0 10 -4 10 -10z m1155 -60 c-3 -5 -1
-10 5 -10 20 0 -10 -40 -38 -51 -20 -8 -35 -7 -59 5 -44 21 -42 36 6 36 25 0
41 5 45 15 3 8 15 15 26 15 12 0 18 -4 15 -10z m-1544 -367 c-12 -20 -14 -14
-5 12 4 9 9 14 11 11 3 -2 0 -13 -6 -23z m1459 -192 c0 -6 -4 -13 -10 -16 -5
-3 -10 1 -10 9 0 9 5 16 10 16 6 0 10 -4 10 -9z m-75 -1523 c14 -6 25 -15 25
-19 0 -12 -33 -27 -52 -24 -10 2 -16 -2 -15 -7 1 -6 -13 -15 -32 -20 -18 -5
-58 -23 -88 -40 -30 -17 -56 -28 -59 -26 -2 3 1 19 7 36 7 21 26 40 57 58 102
60 112 63 157 42z m-383 -270 c-13 -13 -26 8 -17 30 6 16 7 16 17 -1 7 -13 7
-22 0 -29z"/>
<path d="M2190 3168 c0 -9 7 -22 17 -29 15 -13 15 -12 3 11 -17 34 -20 36 -20
18z"/>
<path d="M2370 2735 c7 -9 15 -13 17 -11 7 7 -7 26 -19 26 -6 0 -6 -6 2 -15z"/>
<path d="M2455 2681 c-3 -5 -1 -12 5 -16 5 -3 10 1 10 9 0 18 -6 21 -15 7z"/>
<path d="M2140 2692 c0 -5 7 -17 15 -28 15 -19 20 -8 9 20 -6 17 -24 22 -24 8z"/>
<path d="M2655 3410 c10 -11 20 -20 23 -20 3 0 -3 9 -13 20 -10 11 -20 20 -23
20 -3 0 3 -9 13 -20z"/>
<path d="M1450 3120 c-6 -12 -9 -24 -7 -27 3 -2 11 5 17 17 6 12 9 24 7 27 -3
2 -11 -5 -17 -17z"/>
<path d="M1590 3015 c0 -8 2 -15 4 -15 2 0 6 7 10 15 3 8 1 15 -4 15 -6 0 -10
-7 -10 -15z"/>
<path d="M1576 2973 c-6 -14 -5 -15 5 -6 7 7 10 15 7 18 -3 3 -9 -2 -12 -12z"/>
<path d="M2703 2865 c-3 -9 -3 -18 -1 -21 3 -3 8 4 11 16 6 23 -1 27 -10 5z"/>
<path d="M2630 2826 c0 -14 31 -37 43 -33 9 4 9 6 -1 6 -8 1 -10 6 -6 14 4 6
4 9 -1 5 -4 -4 -14 -3 -22 3 -7 6 -13 8 -13 5z"/>
<path d="M1422 2645 c0 -16 2 -22 5 -12 2 9 2 23 0 30 -3 6 -5 -1 -5 -18z"/>
<path d="M1368 2473 c7 -3 16 -2 19 1 4 3 -2 6 -13 5 -11 0 -14 -3 -6 -6z"/>
</g>
</svg>
