<?xml version="1.0" standalone="no"?>
<!DOCTYPE svg PUBLIC "-//W3C//DTD SVG 20010904//EN"
 "http://www.w3.org/TR/2001/REC-SVG-20010904/DTD/svg10.dtd">
<svg version="1.0" xmlns="http://www.w3.org/2000/svg"
 width="350.000000pt" height="437.000000pt" viewBox="0 0 350.000000 437.000000"
 preserveAspectRatio="xMidYMid meet">

<g transform="translate(0.000000,437.000000) scale(0.100000,-0.100000)"
fill="#000000" stroke="none">
<path d="M2230 3571 c-52 -17 -84 -33 -82 -40 1 -7 -2 -10 -8 -6 -11 7 -74
-40 -125 -93 -42 -43 -68 -98 -101 -211 -29 -104 -27 -128 22 -221 20 -38 22
-46 9 -53 -20 -11 -19 -34 1 -45 11 -6 15 -17 12 -30 -4 -15 -2 -19 8 -15 8 3
14 0 14 -6 0 -6 -6 -11 -12 -11 -10 0 -9 -3 1 -9 9 -6 10 -11 2 -15 -6 -4 -11
-17 -11 -30 0 -13 -10 -28 -22 -36 -13 -7 -39 -31 -58 -53 l-35 -41 32 22 c18
13 47 38 65 57 21 23 36 31 42 25 6 -6 20 -10 33 -10 18 0 24 -8 33 -42 6 -24
22 -60 36 -80 13 -21 24 -42 24 -47 0 -9 -21 -61 -39 -99 -3 -7 -46 -29 -96
-49 -73 -29 -94 -34 -115 -26 -21 8 -31 6 -51 -10 -52 -43 -163 -86 -242 -93
-50 -4 -78 -11 -81 -20 -7 -18 -26 -18 -26 -1 0 7 -20 20 -45 29 -25 10 -45
13 -45 8 0 -4 -19 -15 -43 -23 -48 -16 -87 -8 -87 19 0 9 -10 43 -21 76 -18
48 -20 63 -10 84 6 14 7 24 2 22 -11 -3 -155 -170 -178 -205 -8 -13 -43 -43
-77 -67 -71 -51 -147 -129 -171 -177 -10 -19 -52 -68 -95 -109 -64 -63 -82
-87 -108 -150 -27 -68 -36 -113 -33 -177 2 -40 47 -80 126 -108 76 -28 96 -29
185 -7 25 6 95 15 155 21 74 6 125 16 155 30 25 11 56 21 69 21 13 0 70 34
130 76 136 98 166 113 185 93 25 -25 45 -121 55 -264 6 -77 17 -177 25 -221
14 -80 14 -83 -10 -141 -13 -33 -30 -101 -37 -150 -9 -63 -20 -99 -35 -118
-29 -37 -28 -60 6 -104 41 -52 43 -64 20 -110 -12 -25 -21 -67 -23 -106 -3
-51 -12 -83 -44 -150 -23 -46 -41 -89 -41 -95 0 -5 -39 -47 -87 -92 -48 -46
-108 -105 -135 -133 l-48 -50 353 -3 c370 -3 372 -3 505 45 53 19 57 38 5 27
-21 -5 -57 -8 -80 -9 -29 0 -43 -4 -43 -13 0 -9 -11 -12 -32 -10 -29 3 -33 7
-33 32 0 24 6 32 31 42 30 12 32 12 27 -7 -4 -16 0 -14 26 10 18 17 55 36 84
44 87 23 158 34 163 25 3 -5 14 -6 25 -3 10 4 24 3 31 -2 19 -11 38 -12 38 -2
0 5 9 9 19 9 17 0 76 -83 120 -170 7 -13 71 -15 471 -18 l462 -2 -19 32 c-13
23 -59 56 -158 115 -77 46 -155 98 -174 117 l-34 34 39 45 c23 26 60 91 88
154 27 59 59 127 73 151 39 69 47 191 45 682 -1 432 -2 436 -27 535 -50 195
-74 255 -121 300 -55 54 -207 149 -361 228 -85 43 -123 67 -123 79 0 28 -22
67 -47 83 -12 9 -23 23 -23 32 0 9 14 74 31 144 l32 127 20 -19 c26 -23 31
-24 48 -1 11 14 11 15 -1 5 -17 -15 -34 -17 -25 -3 3 6 -1 10 -10 10 -12 0
-15 5 -11 16 3 9 6 21 6 27 0 7 5 6 11 -3 8 -12 10 -10 7 11 -5 30 18 59 25
31 4 -13 5 -11 6 5 1 16 6 21 16 17 11 -5 13 -2 9 10 -8 21 -16 20 -48 -5 -26
-21 -36 -12 -13 13 25 27 87 164 87 194 0 16 -11 59 -25 93 -13 35 -22 68 -19
72 3 5 0 9 -6 9 -7 0 -9 7 -6 16 4 10 2 13 -6 8 -7 -5 -9 -2 -5 8 4 11 0 15
-11 13 -20 -3 -44 14 -37 25 3 5 -8 20 -25 33 -16 14 -30 30 -30 35 0 6 -11
13 -24 16 -14 3 -31 18 -38 34 -7 15 -30 35 -52 46 -60 29 -111 28 -206 -3z
m85 -241 c-7 -12 31 -36 73 -45 21 -4 32 -12 32 -23 0 -10 9 -23 21 -30 19
-12 20 -12 14 10 -6 17 -4 20 4 12 11 -10 14 -51 9 -104 -1 -12 -16 -16 -62
-18 -77 -3 -95 -9 -95 -30 0 -28 -6 -49 -20 -66 -11 -13 -12 -28 -2 -79 18
-93 17 -98 -1 -111 -13 -8 -23 -8 -35 0 -15 10 -17 23 -15 82 3 62 1 76 -24
119 -34 58 -39 62 -84 64 -19 1 -28 3 -19 6 9 2 22 15 29 28 7 13 18 21 26 18
9 -3 11 2 7 16 -6 23 -19 28 -26 9 -2 -7 -4 -1 -3 14 0 14 5 26 11 25 5 -1 9
3 10 8 0 13 35 62 35 50 0 -5 7 1 16 13 9 14 22 21 32 18 10 -3 28 1 42 8 32
18 32 18 25 6z m159 -246 c9 -3 16 -12 16 -18 0 -8 -23 -13 -70 -14 -43 -1
-70 2 -70 8 0 22 86 39 124 24z m-308 -45 c11 -12 4 -14 -45 -13 -65 1 -92 11
-70 26 19 12 98 3 115 -13z m164 -29 c0 -5 -2 -10 -4 -10 -3 0 -8 5 -11 10 -3
6 -1 10 4 10 6 0 11 -4 11 -10z m-159 -17 c12 -16 12 -17 -2 -6 -9 7 -20 9
-24 5 -5 -4 -5 -1 -1 6 9 16 11 15 27 -5z m260 -2 c-24 -15 20 -19 56 -4 27
11 32 10 37 -3 11 -28 7 -94 -6 -94 -6 0 -9 -3 -5 -6 3 -3 1 -18 -4 -33 -6
-14 -12 -44 -15 -65 -2 -22 -8 -44 -14 -50 -5 -5 -10 -18 -10 -28 0 -10 -4
-18 -10 -18 -5 0 -10 9 -10 19 0 28 -20 37 -27 12 -5 -19 -8 -20 -22 -8 -20
18 -96 28 -109 15 -6 -6 -17 -6 -30 1 -10 6 -22 8 -24 5 -3 -3 -8 2 -11 9 -8
20 40 59 63 52 11 -4 16 -12 13 -24 -3 -11 1 -18 11 -18 8 0 13 4 10 9 -3 4
-1 8 5 8 5 0 12 -4 16 -10 3 -5 12 -7 21 -3 12 4 11 8 -6 20 -17 12 -19 18 -9
29 14 17 7 72 -16 117 -10 21 -12 33 -5 35 8 3 7 8 -1 18 -10 12 -4 13 37 8
36 -4 45 -3 34 5 -12 9 -9 11 15 11 21 0 26 -3 16 -9z m-301 -31 c13 -7 21 -7
25 0 10 16 38 12 32 -4 -3 -8 -2 -48 2 -91 6 -64 4 -80 -10 -96 -10 -12 -23
-17 -34 -13 -9 4 -20 2 -24 -4 -11 -17 -44 15 -46 45 -2 16 -10 45 -19 66 -16
37 -16 38 11 63 17 16 35 23 48 20 20 -5 20 -5 1 9 -23 17 -14 20 14 5z m-156
-35 c3 -8 2 -15 -3 -15 -5 0 -14 7 -21 15 -10 12 -10 15 3 15 8 0 17 -7 21
-15z m366 -75 c0 -5 -4 -10 -10 -10 -5 0 -10 5 -10 10 0 6 5 10 10 10 6 0 10
-4 10 -10z m-20 -34 c0 -3 -4 -8 -10 -11 -5 -3 -10 -1 -10 4 0 6 5 11 10 11 6
0 10 -2 10 -4z m-102 -78 c-3 -7 -13 -15 -24 -17 -16 -3 -17 -1 -5 13 16 19
34 21 29 4z m302 -2 c0 -2 -6 -9 -14 -15 -11 -9 -16 -9 -22 0 -4 8 -3 9 4 5 7
-4 12 -2 12 3 0 6 5 11 10 11 6 0 10 -2 10 -4z m-80 -66 c0 -5 -7 -7 -15 -4
-10 4 -13 2 -10 -8 3 -8 -1 -21 -10 -28 -13 -11 -15 -9 -15 13 0 14 8 30 17
36 19 10 33 6 33 -9z m-127 -7 c-7 -2 -19 -2 -25 0 -7 3 -2 5 12 5 14 0 19 -2
13 -5z m-148 -12 c3 -5 1 -12 -4 -15 -5 -3 -11 1 -15 9 -6 16 9 21 19 6z m185
-15 c0 -2 -7 -7 -16 -10 -8 -3 -12 -2 -9 4 6 10 25 14 25 6z m25 -80 c-6 -21
-6 -21 9 -2 15 19 16 19 16 -8 0 -21 -4 -27 -16 -22 -8 3 -12 2 -9 -4 7 -11
-42 -33 -59 -27 -6 3 -19 0 -28 -5 -13 -6 -27 0 -54 25 -39 36 -39 61 -1 52
12 -3 45 -1 72 3 73 12 76 11 70 -12z m-183 -147 c15 -11 27 -23 26 -27 -6
-30 67 -114 110 -127 18 -5 22 -2 22 15 0 14 -5 20 -13 17 -8 -3 -20 -1 -28 4
-10 6 -2 9 24 9 47 0 62 14 99 92 27 58 37 66 42 36 1 -7 5 -18 9 -25 9 -14
-2 -43 -16 -43 -6 0 -7 -3 -4 -7 4 -3 -4 -21 -18 -38 -27 -37 -40 -78 -30 -96
5 -7 21 4 46 32 31 36 38 40 39 24 0 -34 -27 -62 -95 -98 -47 -25 -65 -31 -65
-20 0 8 -13 26 -29 41 -47 45 -171 214 -171 234 0 14 3 16 13 8 6 -5 24 -19
39 -31z m138 11 c0 -5 -4 -10 -9 -10 -6 0 -13 5 -16 10 -3 6 1 10 9 10 9 0 16
-4 16 -10z m60 -42 c0 -12 -52 -48 -70 -48 -10 0 -28 9 -41 20 l-24 19 43 1
c23 0 42 3 42 8 0 4 11 7 25 7 14 0 25 -3 25 -7z m-104 -555 c-10 -10 -19 5
-10 18 6 11 8 11 12 0 2 -7 1 -15 -2 -18z m-66 -1513 c30 -16 13 -40 -29 -41
-20 0 -30 -3 -23 -6 17 -7 5 -23 -17 -23 -10 0 -48 -16 -84 -35 -37 -20 -67
-34 -67 -32 0 2 5 18 11 36 8 23 29 42 77 71 69 41 99 48 132 30z m-376 -255
c3 -9 0 -15 -9 -15 -8 0 -15 7 -15 15 0 8 4 15 9 15 5 0 11 -7 15 -15z"/>
<path d="M2060 2871 c0 -6 4 -13 10 -16 6 -3 7 1 4 9 -7 18 -14 21 -14 7z"/>
<path d="M2590 3466 c0 -2 8 -10 18 -17 15 -13 16 -12 3 4 -13 16 -21 21 -21
13z"/>
<path d="M2615 3400 c3 -5 8 -10 11 -10 2 0 4 5 4 10 0 6 -5 10 -11 10 -5 0
-7 -4 -4 -10z"/>
<path d="M1724 2938 l-29 -33 33 29 c30 28 37 36 29 36 -2 0 -16 -15 -33 -32z"/>
<path d="M2677 2913 c-4 -3 -7 -16 -6 -27 0 -19 1 -19 10 3 10 24 8 36 -4 24z"/>
<path d="M1823 2870 c-18 -9 -28 -21 -24 -28 4 -7 18 0 40 19 37 32 32 35 -16
9z"/>
<path d="M1754 2788 l-29 -33 33 29 c30 28 37 36 29 36 -2 0 -16 -15 -33 -32z"/>
<path d="M1477 2783 c-4 -3 -7 -11 -7 -17 0 -6 5 -5 12 2 6 6 9 14 7 17 -3 3
-9 2 -12 -2z"/>
<path d="M1580 2738 c0 -4 4 -8 9 -8 6 0 12 4 15 8 3 5 -1 9 -9 9 -8 0 -15 -4
-15 -9z"/>
<path d="M1240 2559 c0 -5 5 -7 10 -4 6 3 10 8 10 11 0 2 -4 4 -10 4 -5 0 -10
-5 -10 -11z"/>
<path d="M2308 114 c-3 -3 4 -16 16 -29 27 -31 34 -24 8 9 -10 14 -22 23 -24
20z"/>
<path d="M2220 86 c0 -2 7 -9 15 -16 12 -10 15 -10 15 4 0 9 -7 16 -15 16 -8
0 -15 -2 -15 -4z"/>
</g>
</svg>
