<?xml version="1.0" encoding="utf-8"?>
<svg xmlns="http://www.w3.org/2000/svg" xmlns:xlink="http://www.w3.org/1999/xlink" 
width="1902" height="938"
 preserveAspectRatio="xMidYMid" 
 viewBox="0 0 1902 938" 
    style="z-index:1;margin-right:-2px;display:block;background-repeat-y:initial;background-repeat-x:initial;background-color:rgba(241, 242, 243,0);animation-play-state: running" >
   <style type="text/css" style="animation-play-state:running" >
  
        /* <!-- @keyframes ld3 {
            0% { d: path("M -100 803.13 C 8.64 785.57 10.4 873.04 113.4 873.04 S 224.1 871.88 326.8 871.88 S 437.54 894.81 540.2 894.81 S 648.58 907.38 753.6 907.38 S 864.19 891.08 967.01 891.08 S 1075.35 789.1 1180.41 789.1 S 1290.95 893.73 1393.81 893.73 S 1501.7 792.44 1607.21 792.44 S 1714.86 903.22 1820.61 903.22 S 1928.55 812.37 2034.01 812.37 L 2002 938 L -100 938 Z"); }
            50% {  d: path("M 100 1803.13 C 18.64 1785.57 110.4 1873.04 1113.4 1873.04 S 1224.1 1871.88 1326.8 1871.88 S 1437.54 1894.81 1540.2 1894.81 S 1648.58 1907.38 1753.6 1907.38 S 1864.19 1891.08 1967.01 1891.08 S 11075.35 1789.1 11180.41 1789.1 S 11290.95 1893.73 11393.81 1893.73 S 11501.7 1792.44 11607.21 1792.44 S 11714.86 1903.22 1820.61 1903.22 S 11928.55 1812.37 12034.01 1812.37 L 12002 1938 L 100 1938 Z"); }
            100% {  d: path("M -100 803.13 C 8.64 785.57 10.4 873.04 113.4 873.04 S 224.1 871.88 326.8 871.88 S 437.54 894.81 540.2 894.81 S 648.58 907.38 753.6 907.38 S 864.19 891.08 967.01 891.08 S 1075.35 789.1 1180.41 789.1 S 1290.95 893.73 1393.81 893.73 S 1501.7 792.44 1607.21 792.44 S 1714.86 903.22 1820.61 903.22 S 1928.55 812.37 2034.01 812.37 L 2002 938 L -100 938 Z"); }
        }
        .ls.ld-speed-dash{
            animation: ld3 7s linear infinite;
        } --> */
        @keyframes ld-speed-dash {
            0% { transform: translateX(-30px); }
            50% { transform: translateX(30px); }
            100% { transform: translate(-30px); }
        }
        .ld.ld-speed-dash {
            animation: ld-speed-dash 18s linear infinite;
        }
  </style>
  <g class="ld ld-speed-dash" transform="translate(951,469) scale(1,1) translate(-951,-469)" style="transform:matrix(1, 0, 0, 1, 0, 0);animation-play-state: running" >
    <path id="f2" class="ld ld-speed-dash" d="M -100 538.59 C -10.81 523.21 -9.38 544.11 75.9 544.11 S 167.64 540.36 251.8 540.36 S 339.99 539.97 427.7 539.97 S 516.64 568.89 603.6 568.89 S 694.82 562.21 779.5 562.21 S 868.56 522.48 955.4 522.48 S 1047.32 552.64 1131.3 552.64 S 1221.92 580.22 1307.2 580.22 S 1399.38 512.85 1483.1 512.85 S 1572.46 533.37 1659 533.37 S 1747.66 524.77 1834.9 524.77 S 1923.74 518.49 2010.79 518.49 L 2002 938 L -100 938 Z" fill="#5a5d75" stroke-width="0" transform="matrix(1,0,0,1,6.413684844970703,0)" style="transform:matrix(1, 0, 0, 1, 6.41368, 0);animation-duration:8.8s;animation-play-state: running" ></path>
    <path class="ld ld-speed-dash" d="M -100 589.21 C -5.84 565.72 -9.27 610.63 81.21 610.63 S 173.37 566.26 262.41 566.26 S 356.1 604.78 443.62 604.78 S 536.82 562.26 624.83 562.26 S 717.47 609.81 806.03 609.81 S 899.75 563.72 987.24 563.72 S 1078.6 603.75 1168.45 603.75 S 1261.84 590.73 1349.66 590.73 S 1440.38 629.22 1530.86 629.22 S 1625.55 568.62 1712.07 568.62 S 1803.08 555.91 1893.28 555.91 S 1984.97 601.48 2074.48 601.48 L 2002 938 L -100 938 Z" fill="#686b88" stroke-width="0" transform="matrix(1,0,0,1,8.86598014831543,0)" style="transform:matrix(1, 0, 0, 1, 8.86598, 0);animation-duration:16.2s;animation-play-state: running" ></path>
    <path class="ld ld-speed-dash" d="M -100 628.85 C -3.82 618.41 -2.29 650.66 86.84 650.66 S 182 612.34 273.69 612.34 S 369.07 610.09 460.53 610.09 S 555.66 642.64 647.38 642.64 S 744.49 684.14 834.22 684.14 S 930.97 666.99 1021.07 666.99 S 1116.86 604.19 1207.91 604.19 S 1304.38 604.52 1394.76 604.52 S 1491.68 683.02 1581.6 683.02 S 1678.92 680.92 1768.44 680.92 S 1863.59 612.45 1955.29 612.45 S 2050.72 660.81 2142.13 660.81 L 2002 938 L -100 938 Z" fill="#77799c" stroke-width="0" transform="matrix(1,0,0,1,10,0)" style="transform:matrix(1, 0, 0, 1, 10, 0);animation-duration:14.5s;animation-play-state: running" ></path>
    </g>
</svg>