<?xml version="1.0" encoding="utf-8"?>
<svg xmlns="http://www.w3.org/2000/svg" xmlns:xlink="http://www.w3.org/1999/xlink" 
width="1902" height="938"
 preserveAspectRatio="xMidYMid" 
 viewBox="0 0 1902 938" 
    style="z-index:1;margin-right:-2px;display:block;background-repeat-y:initial;background-repeat-x:initial;background-color:rgba(241, 242, 243,0);animation-play-state: running" >
   <style type="text/css" style="animation-play-state:running" >
  
        /* <!-- @keyframes ld3 {
            0% { d: path("M -100 803.13 C 8.64 785.57 10.4 873.04 113.4 873.04 S 224.1 871.88 326.8 871.88 S 437.54 894.81 540.2 894.81 S 648.58 907.38 753.6 907.38 S 864.19 891.08 967.01 891.08 S 1075.35 789.1 1180.41 789.1 S 1290.95 893.73 1393.81 893.73 S 1501.7 792.44 1607.21 792.44 S 1714.86 903.22 1820.61 903.22 S 1928.55 812.37 2034.01 812.37 L 2002 938 L -100 938 Z"); }
            50% {  d: path("M 100 1803.13 C 18.64 1785.57 110.4 1873.04 1113.4 1873.04 S 1224.1 1871.88 1326.8 1871.88 S 1437.54 1894.81 1540.2 1894.81 S 1648.58 1907.38 1753.6 1907.38 S 1864.19 1891.08 1967.01 1891.08 S 11075.35 1789.1 11180.41 1789.1 S 11290.95 1893.73 11393.81 1893.73 S 11501.7 1792.44 11607.21 1792.44 S 11714.86 1903.22 1820.61 1903.22 S 11928.55 1812.37 12034.01 1812.37 L 12002 1938 L 100 1938 Z"); }
            100% {  d: path("M -100 803.13 C 8.64 785.57 10.4 873.04 113.4 873.04 S 224.1 871.88 326.8 871.88 S 437.54 894.81 540.2 894.81 S 648.58 907.38 753.6 907.38 S 864.19 891.08 967.01 891.08 S 1075.35 789.1 1180.41 789.1 S 1290.95 893.73 1393.81 893.73 S 1501.7 792.44 1607.21 792.44 S 1714.86 903.22 1820.61 903.22 S 1928.55 812.37 2034.01 812.37 L 2002 938 L -100 938 Z"); }
        }
        .ls.ld-speed-dash{
            animation: ld3 7s linear infinite;
        } --> */
        @keyframes ld-speed-dash {
            0% { transform: translateX(-30px); }
            50% { transform: translateX(30px); }
            100% { transform: translate(-30px); }
        }
        .ld.ld-speed-dash {
            animation: ld-speed-dash 18s linear infinite;
        }
  </style>
  <g class="ld ld-speed-dash" transform="translate(951,469) scale(1,1) translate(-951,-469)" style="transform:matrix(1, 0, 0, 1, 0, 0);animation-play-state: running" >
    <path id="f1" class="ld ld-speed-dash" d="M -100 410.99 C -17.34 402.63 -18.27 377.63 61.69 377.63 S 144.26 380.9 223.38 380.9 S 307.62 385.48 385.08 385.48 S 467.36 392.25 546.77 392.25 S 629.53 399.38 708.46 399.38 S 790.15 413.81 870.15 413.81 S 954.54 392.36 1031.85 392.36 S 1114.1 403.11 1193.54 403.11 S 1276.43 379.71 1355.23 379.71 S 1438.98 378.15 1516.92 378.15 S 1600.38 411.02 1678.62 411.02 S 1759.76 396 1840.31 396 S 1923.27 384.54 2002 384.54 S 2085.81 403.84 2163.69 403.84 L 2002 938 L -100 938 Z" fill="#343540" stroke-width="0" transform="matrix(1,0,0,1,0,0)" style="transform:matrix(1, 0, 0, 1, 0, 0);animation-play-state: running" ></path>
    <path class="ld ld-speed-dash" d="M -100 451.61 C -16.05 448.99 -16.39 456.1 66.17 456.1 S 150.44 459.08 232.33 459.08 S 318.16 433.3 398.5 433.3 S 484.74 444.73 564.66 444.73 S 648.79 437.72 730.83 437.72 S 816.87 462.68 897 462.68 S 982.91 471.53 1063.16 471.53 S 1146.37 435.57 1229.33 435.57 S 1314.74 432.76 1395.49 432.76 S 1480.03 461.92 1561.66 461.92 S 1648.97 470.45 1727.83 470.45 S 1814.61 458.98 1893.99 458.98 S 1977.88 437.22 2060.16 437.22 L 2002 938 L -100 938 Z" fill="#404251" stroke-width="0" transform="matrix(1,0,0,1,1.1340196132659912,0)" style="transform:matrix(1, 0, 0, 1, 1.13402, 0);animation-duration:12s;animation-play-state: running" ></path>
    <path class="ld ld-speed-dash" d="M -100 470.29 C -11.46 483.09 -14.43 510.79 70.89 510.79 S 157.36 490.01 241.79 490.01 S 329.13 485.54 412.68 485.54 S 499.48 511.17 583.58 511.17 S 673.03 496.44 754.47 496.44 S 840.94 491.67 925.37 491.67 S 1011.06 502.47 1096.26 502.47 S 1185.95 477.73 1267.15 477.73 S 1352.63 485.17 1438.05 485.17 S 1524.5 504.66 1608.94 504.66 S 1695.44 523.51 1779.84 523.51 S 1866.09 482.28 1950.73 482.28 S 2038.02 487.62 2121.63 487.62 L 2002 938 L -100 938 Z" fill="#4d4f63" stroke-width="0" transform="matrix(1,0,0,1,3.5863146781921387,0)" style="transform:matrix(1, 0, 0, 1, 3.58631, 0);animation-duration:11.7s;animation-play-state: running" ></path>
    </g>
</svg>