<?xml version="1.0" encoding="utf-8"?>
<svg xmlns="http://www.w3.org/2000/svg" xmlns:xlink="http://www.w3.org/1999/xlink" 
width="1902" height="938"
 preserveAspectRatio="xMidYMid" 
 viewBox="0 0 1902 938" 
    style="z-index:1;margin-right:-2px;display:block;background-repeat-y:initial;background-repeat-x:initial;background-color:rgba(241, 242, 243,0);animation-play-state: running" >
   <style type="text/css" style="animation-play-state:running" >
  
        <!-- @keyframes ld3 {
            0% { d: path("M -100 803.13 C 8.64 785.57 10.4 873.04 113.4 873.04 S 224.1 871.88 326.8 871.88 S 437.54 894.81 540.2 894.81 S 648.58 907.38 753.6 907.38 S 864.19 891.08 967.01 891.08 S 1075.35 789.1 1180.41 789.1 S 1290.95 893.73 1393.81 893.73 S 1501.7 792.44 1607.21 792.44 S 1714.86 903.22 1820.61 903.22 S 1928.55 812.37 2034.01 812.37 L 2002 938 L -100 938 Z"); }
            50% {  d: path("M 100 1803.13 C 18.64 1785.57 110.4 1873.04 1113.4 1873.04 S 1224.1 1871.88 1326.8 1871.88 S 1437.54 1894.81 1540.2 1894.81 S 1648.58 1907.38 1753.6 1907.38 S 1864.19 1891.08 1967.01 1891.08 S 11075.35 1789.1 11180.41 1789.1 S 11290.95 1893.73 11393.81 1893.73 S 11501.7 1792.44 11607.21 1792.44 S 11714.86 1903.22 1820.61 1903.22 S 11928.55 1812.37 12034.01 1812.37 L 12002 1938 L 100 1938 Z"); }
            100% {  d: path("M -100 803.13 C 8.64 785.57 10.4 873.04 113.4 873.04 S 224.1 871.88 326.8 871.88 S 437.54 894.81 540.2 894.81 S 648.58 907.38 753.6 907.38 S 864.19 891.08 967.01 891.08 S 1075.35 789.1 1180.41 789.1 S 1290.95 893.73 1393.81 893.73 S 1501.7 792.44 1607.21 792.44 S 1714.86 903.22 1820.61 903.22 S 1928.55 812.37 2034.01 812.37 L 2002 938 L -100 938 Z"); }
        }
        .ls.ld-speed-dash{
            animation: ld3 7s linear infinite;
        } -->
        @keyframes ld-speed-dash {
            0% { transform: translateX(-30px); }
            50% { transform: translateX(30px); }
            100% { transform: translate(-30px); }
        }
        .ld.ld-speed-dash {
            animation: ld-speed-dash 18s linear infinite;
        }
  </style>
    <g class="ld ld-speed-dash" transform="translate(951,469) scale(1,1) translate(-951,-469)" style="transform:matrix(1, 0, 0, 1, 0, 0);animation-play-state: running" >
<path id="f1" class="ld ld-speed-dash" d="M -100 410.99 C -17.34 402.63 -18.27 377.63 61.69 377.63 S 144.26 380.9 223.38 380.9 S 307.62 385.48 385.08 385.48 S 467.36 392.25 546.77 392.25 S 629.53 399.38 708.46 399.38 S 790.15 413.81 870.15 413.81 S 954.54 392.36 1031.85 392.36 S 1114.1 403.11 1193.54 403.11 S 1276.43 379.71 1355.23 379.71 S 1438.98 378.15 1516.92 378.15 S 1600.38 411.02 1678.62 411.02 S 1759.76 396 1840.31 396 S 1923.27 384.54 2002 384.54 S 2085.81 403.84 2163.69 403.84 L 2002 938 L -100 938 Z" fill="#343540" stroke-width="0" transform="matrix(1,0,0,1,0,0)" style="transform:matrix(1, 0, 0, 1, 0, 0);animation-play-state: running" ></path>
<path class="ld ld-speed-dash" d="M -100 451.61 C -16.05 448.99 -16.39 456.1 66.17 456.1 S 150.44 459.08 232.33 459.08 S 318.16 433.3 398.5 433.3 S 484.74 444.73 564.66 444.73 S 648.79 437.72 730.83 437.72 S 816.87 462.68 897 462.68 S 982.91 471.53 1063.16 471.53 S 1146.37 435.57 1229.33 435.57 S 1314.74 432.76 1395.49 432.76 S 1480.03 461.92 1561.66 461.92 S 1648.97 470.45 1727.83 470.45 S 1814.61 458.98 1893.99 458.98 S 1977.88 437.22 2060.16 437.22 L 2002 938 L -100 938 Z" fill="#404251" stroke-width="0" transform="matrix(1,0,0,1,1.1340196132659912,0)" style="transform:matrix(1, 0, 0, 1, 1.13402, 0);animation-duration:12s;animation-play-state: running" ></path>
<path class="ld ld-speed-dash" d="M -100 470.29 C -11.46 483.09 -14.43 510.79 70.89 510.79 S 157.36 490.01 241.79 490.01 S 329.13 485.54 412.68 485.54 S 499.48 511.17 583.58 511.17 S 673.03 496.44 754.47 496.44 S 840.94 491.67 925.37 491.67 S 1011.06 502.47 1096.26 502.47 S 1185.95 477.73 1267.15 477.73 S 1352.63 485.17 1438.05 485.17 S 1524.5 504.66 1608.94 504.66 S 1695.44 523.51 1779.84 523.51 S 1866.09 482.28 1950.73 482.28 S 2038.02 487.62 2121.63 487.62 L 2002 938 L -100 938 Z" fill="#4d4f63" stroke-width="0" transform="matrix(1,0,0,1,3.5863146781921387,0)" style="transform:matrix(1, 0, 0, 1, 3.58631, 0);animation-duration:11.7s;animation-play-state: running" ></path>
<path id="f2" class="ld ld-speed-dash" d="M -100 538.59 C -10.81 523.21 -9.38 544.11 75.9 544.11 S 167.64 540.36 251.8 540.36 S 339.99 539.97 427.7 539.97 S 516.64 568.89 603.6 568.89 S 694.82 562.21 779.5 562.21 S 868.56 522.48 955.4 522.48 S 1047.32 552.64 1131.3 552.64 S 1221.92 580.22 1307.2 580.22 S 1399.38 512.85 1483.1 512.85 S 1572.46 533.37 1659 533.37 S 1747.66 524.77 1834.9 524.77 S 1923.74 518.49 2010.79 518.49 L 2002 938 L -100 938 Z" fill="#5a5d75" stroke-width="0" transform="matrix(1,0,0,1,6.413684844970703,0)" style="transform:matrix(1, 0, 0, 1, 6.41368, 0);animation-duration:8.8s;animation-play-state: running" ></path>
<path class="ld ld-speed-dash" d="M -100 589.21 C -5.84 565.72 -9.27 610.63 81.21 610.63 S 173.37 566.26 262.41 566.26 S 356.1 604.78 443.62 604.78 S 536.82 562.26 624.83 562.26 S 717.47 609.81 806.03 609.81 S 899.75 563.72 987.24 563.72 S 1078.6 603.75 1168.45 603.75 S 1261.84 590.73 1349.66 590.73 S 1440.38 629.22 1530.86 629.22 S 1625.55 568.62 1712.07 568.62 S 1803.08 555.91 1893.28 555.91 S 1984.97 601.48 2074.48 601.48 L 2002 938 L -100 938 Z" fill="#686b88" stroke-width="0" transform="matrix(1,0,0,1,8.86598014831543,0)" style="transform:matrix(1, 0, 0, 1, 8.86598, 0);animation-duration:16.2s;animation-play-state: running" ></path>
<path class="ld ld-speed-dash" d="M -100 628.85 C -3.82 618.41 -2.29 650.66 86.84 650.66 S 182 612.34 273.69 612.34 S 369.07 610.09 460.53 610.09 S 555.66 642.64 647.38 642.64 S 744.49 684.14 834.22 684.14 S 930.97 666.99 1021.07 666.99 S 1116.86 604.19 1207.91 604.19 S 1304.38 604.52 1394.76 604.52 S 1491.68 683.02 1581.6 683.02 S 1678.92 680.92 1768.44 680.92 S 1863.59 612.45 1955.29 612.45 S 2050.72 660.81 2142.13 660.81 L 2002 938 L -100 938 Z" fill="#77799c" stroke-width="0" transform="matrix(1,0,0,1,10,0)" style="transform:matrix(1, 0, 0, 1, 10, 0);animation-duration:14.5s;animation-play-state: running" ></path>
<path id="f3" class="ld ld-speed-dash" d="M -100 713 C -0.54 724.17 0.68 709.99 92.84 709.99 S 191.61 648.72 285.69 648.72 S 382.96 666.51 478.53 666.51 S 575.34 656.53 671.38 656.53 S 767.81 703.43 864.22 703.43 S 963.02 655.58 1057.06 655.58 S 1153.61 685.66 1249.91 685.66 S 1350.57 688.31 1442.75 688.31 S 1539.43 675.79 1635.6 675.79 S 1735.63 654.51 1828.44 654.51 S 1927.39 739.1 2021.28 739.1 L 2002 938 L -100 938 Z" fill="#8687af" stroke-width="0" transform="matrix(1,0,0,1,8.86598014831543,0)" style="transform:matrix(1, 0, 0, 1, 8.86598, 0);animation-duration:8s;animation-play-state: running" ></path>
<path class="ld ld-speed-dash" d="M -100 712.28 C -0.22 720.33 0.74 788.8 99.24 788.8 S 199.54 719.52 298.48 719.52 S 398.25 763.75 497.73 763.75 S 600.21 694.68 696.97 694.68 S 799.24 766.27 896.21 766.27 S 997.4 726.27 1095.45 726.27 S 1197.92 778.64 1294.69 778.64 S 1397.3 695.1 1493.93 695.1 S 1593.75 772.6 1693.18 772.6 S 1794.38 698.23 1892.42 698.23 S 1996.25 777.69 2091.66 777.69 L 2002 938 L -100 938 Z" fill="#9595c4" stroke-width="0" transform="matrix(1,0,0,1,6.4136857986450195,0)" style="transform:matrix(1, 0, 0, 1, 6.41369, 0);animation-duration:13s;animation-play-state: running" ></path>
<path id="f4" class="ld ld-speed-dash" d="M -100 852.04 C 5.27 853.06 3.1 815.77 106.08 815.77 S 211.39 771.01 312.16 771.01 S 418.37 833.35 518.24 833.35 S 624.68 771.3 724.31 771.3 S 828.36 761.37 930.39 761.37 S 1033.47 844.61 1136.47 844.61 S 1243.45 833.41 1342.55 833.41 S 1445.89 774.72 1548.63 774.72 S 1655.67 855.2 1754.71 855.2 S 1860.54 741.49 1960.78 741.49 S 2065.56 837.44 2166.86 837.44 L 2002 938 L -100 938 Z" fill="#a5a4d8" stroke-width="0" transform="matrix(1,0,0,1,3.5863142013549805,0)" style="transform:matrix(1, 0, 0, 1, 3.58631, 0);animation-duration:18s;animation-play-state: running" ></path>
<path id="f5" class="ld ld-speed-dash" d="M -100 803.13 C 8.64 785.57 10.4 873.04 113.4 873.04 S 224.1 871.88 326.8 871.88 S 437.54 894.81 540.2 894.81 S 648.58 907.38 753.6 907.38 S 864.19 891.08 967.01 891.08 S 1075.35 789.1 1180.41 789.1 S 1290.95 893.73 1393.81 893.73 S 1501.7 792.44 1607.21 792.44 S 1714.86 903.22 1820.61 903.22 S 1928.55 812.37 2034.01 812.37 L 2002 938 L -100 938 Z" fill="#b6b3ed" stroke-width="0" transform="matrix(1,0,0,1,1.1340179443359375,0)" style="transform:matrix(1, 0, 0, 1, 1.13402, 0);animation-duration:11s;animation-play-state: running;" ></path>
</g>
</svg>