<?xml version="1.0" encoding="utf-8"?>
<svg xmlns="http://www.w3.org/2000/svg" xmlns:xlink="http://www.w3.org/1999/xlink" width="1920" height="947" preserveAspectRatio="xMidYMid" viewBox="0 0 1920 947" style="z-index:1;margin-right:-2px;display:block;background-repeat-y:initial;background-repeat-x:initial;background-color:rgb(128, 129, 131);animation-play-state:running" >


<g transform="translate(960,473.5) scale(1,1) translate(-960,-473.5)" style="transform:matrix(1, 0, 0, 1, 0, 0);animation-play-state:running" ><defs style="animation-play-state:running" >
<linearGradient id="ldbk-photon-okp084bm5ig-lg" x1="935" x2="1920" y1="0" y2="0" gradientUnits="userSpaceOnUse" style="animation-play-state:running" ><stop stop-color="#3a3232" offset="0" style="animation-play-state:running" ></stop>

    
<stop stop-color="#4e5476" offset="1" style="animation-play-state:running" ></stop></linearGradient>

  
<mask id="ldbk-photon-okp084bm5ig-mask" style="animation-play-state:running" ><g style="animation-play-state:running" ><path d="M2220 -0.5 L937.1417914045725 -0.5 A15 15 0 0 1 937.1417914045725 30.5 L2220 30.5" fill="#fff" transform="matrix(1,0,0,1,25.004688262939453,0)" style="transform:matrix(1, 0, 0, 1, 25.0047, 0);animation-play-state:running" ></path>
<path d="M1975.1199738882299 -0.5 L2000.2399477764598 -0.5 A15 15 0 0 1 2000.2399477764598 30.5 L1975.1199738882299 30.5 A15 15 0 0 1 1975.1199738882299 -0.5" fill="#000" transform="matrix(1,0,0,1,0,0)" opacity="1" style="transform:matrix(1, 0, 0, 1, 0, 0);animation-play-state:running" ></path>
<path d="M2220 29.5 L902.0898915428102 29.5 A15 15 0 0 0 902.0898915428102 60.5 L2220 60.5" fill="#fff" transform="matrix(1,0,0,1,-13.55820083618164,0)" style="transform:matrix(1, 0, 0, 1, -13.5582, 0);animation-play-state:running" ></path>
<path d="M1029.6223924515841 29.5 L1057.220800434226 29.5 A15 15 0 0 1 1057.220800434226 60.5 L1029.6223924515841 60.5 A15 15 0 0 1 1029.6223924515841 29.5" fill="#fff" transform="matrix(1,0,0,1,0,0)" opacity="1" style="transform:matrix(1, 0, 0, 1, 0, 0);animation-play-state:running" ></path>
<path d="M2220 59.5 L942.6113082813383 59.5 A15 15 0 0 1 942.6113082813383 90.5 L2220 90.5" fill="#fff" transform="matrix(1,0,0,1,1.0569789409637451,0)" style="transform:matrix(1, 0, 0, 1, 1.05698, 0);animation-play-state:running" ></path>
<path d="M1983.714727196041 59.5 L2017.4294543920819 59.5 A15 15 0 0 1 2017.4294543920819 90.5 L1983.714727196041 90.5 A15 15 0 0 1 1983.714727196041 59.5" fill="#000" transform="matrix(1,0,0,1,-957.50732421875,0)" opacity="0.625" style="transform:matrix(1, 0, 0, 1, -957.507, 0);opacity:0.625;animation-play-state:running" ></path>
<path d="M2220 89.5 L873.9733163437984 89.5 A15 15 0 0 0 873.9733163437984 120.5 L2220 120.5" fill="#fff" transform="matrix(1,0,0,1,-20.840110778808594,0)" style="transform:matrix(1, 0, 0, 1, -20.8401, 0);animation-play-state:running" ></path>
<path d="M1000.6680956580959 89.5 L1021.2071064781439 89.5 A15 15 0 0 1 1021.2071064781439 120.5 L1000.6680956580959 120.5 A15 15 0 0 1 1000.6680956580959 89.5" fill="#fff" transform="matrix(1,0,0,1,0,0)" opacity="0.223214" style="transform:matrix(1, 0, 0, 1, 0, 0);opacity:0.223214;animation-play-state:running" ></path>
<path d="M2220 119.5 L899.9671811145148 119.5 A15 15 0 0 1 899.9671811145148 150.5 L2220 150.5" fill="#fff" transform="matrix(1,0,0,1,2.683216094970703,0)" style="transform:matrix(1, 0, 0, 1, 2.68322, 0);animation-play-state:running" ></path>
<path d="M1977.0911717801011 119.5 L2004.1823435602023 119.5 A15 15 0 0 1 2004.1823435602023 150.5 L1977.0911717801011 150.5 A15 15 0 0 1 1977.0911717801011 119.5" fill="#000" transform="matrix(1,0,0,1,-730.0303344726562,0)" opacity="0.892857" style="transform:matrix(1, 0, 0, 1, -730.03, 0);opacity:0.892857;animation-play-state:running" ></path>
<path d="M2220 149.5 L886.6985982921155 149.5 A15 15 0 0 0 886.6985982921155 180.5 L2220 180.5" fill="#fff" transform="matrix(1,0,0,1,-0.2686767578125,0)" style="transform:matrix(1, 0, 0, 1, -0.268677, 0);animation-play-state:running" ></path>
<path d="M999.4050926129713 149.5 L1037.5257577504217 149.5 A15 15 0 0 1 1037.5257577504217 180.5 L999.4050926129713 180.5 A15 15 0 0 1 999.4050926129713 149.5" fill="#fff" transform="matrix(1,0,0,1,0,0)" opacity="0.848214" style="transform:matrix(1, 0, 0, 1, 0, 0);opacity:0.848214;animation-play-state:running" ></path>
<path d="M2220 179.5 L925.554057367536 179.5 A15 15 0 0 1 925.554057367536 210.5 L2220 210.5" fill="#fff" transform="matrix(1,0,0,1,0.6342969536781311,0)" style="transform:matrix(1, 0, 0, 1, 0.634297, 0);animation-play-state:running" ></path>
<path d="M1976.1115889864798 179.5 L2002.2231779729595 179.5 A15 15 0 0 1 2002.2231779729595 210.5 L1976.1115889864798 210.5 A15 15 0 0 1 1976.1115889864798 179.5" fill="#000" transform="matrix(1,0,0,1,-1638.0228271484375,0)" opacity="0.446428" style="transform:matrix(1, 0, 0, 1, -1638.02, 0);opacity:0.446428;animation-play-state:running" ></path>
<path d="M2220 209.5 L885.829029686809 209.5 A15 15 0 0 0 885.829029686809 240.5 L2220 240.5" fill="#fff" transform="matrix(1,0,0,1,-7.138031005859375,0)" style="transform:matrix(1, 0, 0, 1, -7.13803, 0);animation-play-state:running" ></path>
<path d="M989.8147949433821 209.5 L1023.3786372589165 209.5 A15 15 0 0 1 1023.3786372589165 240.5 L989.8147949433821 240.5 A15 15 0 0 1 989.8147949433821 209.5" fill="#fff" transform="matrix(1,0,0,1,0,0)" opacity="0.0446426" style="transform:matrix(1, 0, 0, 1, 0, 0);opacity:0.0446426;animation-play-state:running" ></path>
<path d="M2220 239.5 L907.3471962051209 239.5 A15 15 0 0 1 907.3471962051209 270.5 L2220 270.5" fill="#fff" transform="matrix(1,0,0,1,0,0)" style="transform:matrix(1, 0, 0, 1, 0, 0);animation-play-state:running" ></path>
<path d="M1962.176970670032 239.5 L1974.353941340064 239.5 A15 15 0 0 1 1974.353941340064 270.5 L1962.176970670032 270.5 A15 15 0 0 1 1962.176970670032 239.5" fill="#000" transform="matrix(1,0,0,1,-1207.034423828125,0)" opacity="0.357143" style="transform:matrix(1, 0, 0, 1, -1207.03, 0);opacity:0.357143;animation-play-state:running" ></path>
<path d="M2220 269.5 L881.6020413334909 269.5 A15 15 0 0 0 881.6020413334909 300.5 L2220 300.5" fill="#fff" transform="matrix(1,0,0,1,-6.76379919052124,0)" style="transform:matrix(1, 0, 0, 1, -6.7638, 0);animation-play-state:running" ></path>
<path d="M983.441172273506 269.5 L997.2003728455026 269.5 A15 15 0 0 1 997.2003728455026 300.5 L983.441172273506 300.5 A15 15 0 0 1 983.441172273506 269.5" fill="#fff" transform="matrix(1,0,0,1,0,0)" opacity="0.223214" style="transform:matrix(1, 0, 0, 1, 0, 0);opacity:0.223214;animation-play-state:running" ></path>
<path d="M2220 299.5 L908.9730565717991 299.5 A15 15 0 0 1 908.9730565717991 330.5 L2220 330.5" fill="#fff" transform="matrix(1,0,0,1,29.89707374572754,0)" style="transform:matrix(1, 0, 0, 1, 29.8971, 0);animation-play-state:running" ></path>
<path d="M1976.063969115538 299.5 L2002.1279382310759 299.5 A15 15 0 0 1 2002.1279382310759 330.5 L1976.063969115538 330.5 A15 15 0 0 1 1976.063969115538 299.5" fill="#000" transform="matrix(1,0,0,1,-1809.703125,0)" opacity="0.178571" style="transform:matrix(1, 0, 0, 1, -1809.7, 0);opacity:0.178571;animation-play-state:running" ></path>
<path d="M2220 329.5 L891.8213303498189 329.5 A15 15 0 0 0 891.8213303498189 360.5 L2220 360.5" fill="#fff" transform="matrix(1,0,0,1,-27.32496452331543,0)" style="transform:matrix(1, 0, 0, 1, -27.325, 0);animation-play-state:running" ></path>
<path d="M988.5439954901854 329.5 L1014.8807402470885 329.5 A15 15 0 0 1 1014.8807402470885 360.5 L988.5439954901854 360.5 A15 15 0 0 1 988.5439954901854 329.5" fill="#fff" transform="matrix(1,0,0,1,0,0)" opacity="1" style="transform:matrix(1, 0, 0, 1, 0, 0);animation-play-state:running" ></path>
<path d="M2220 359.5 L926.2936337696162 359.5 A15 15 0 0 1 926.2936337696162 390.5 L2220 390.5" fill="#fff" transform="matrix(1,0,0,1,13.091578483581543,0)" style="transform:matrix(1, 0, 0, 1, 13.0916, 0);animation-play-state:running" ></path>
<path d="M1979.0507572533977 359.5 L2008.1015145067954 359.5 A15 15 0 0 1 2008.1015145067954 390.5 L1979.0507572533977 390.5 A15 15 0 0 1 1979.0507572533977 359.5" fill="#000" transform="matrix(1,0,0,1,-803.8013916015625,0)" opacity="0.892857" style="transform:matrix(1, 0, 0, 1, -803.801, 0);opacity:0.892857;animation-play-state:running" ></path>
<path d="M2220 389.5 L879.8271321367506 389.5 A15 15 0 0 0 879.8271321367506 420.5 L2220 420.5" fill="#fff" transform="matrix(1,0,0,1,-24.964590072631836,0)" style="transform:matrix(1, 0, 0, 1, -24.9646, 0);animation-play-state:running" ></path>
<path d="M1018.1757768124496 389.5 L1053.6360176930123 389.5 A15 15 0 0 1 1053.6360176930123 420.5 L1018.1757768124496 420.5 A15 15 0 0 1 1018.1757768124496 389.5" fill="#fff" transform="matrix(1,0,0,1,0,0)" opacity="0.803571" style="transform:matrix(1, 0, 0, 1, 0, 0);opacity:0.803571;animation-play-state:running" ></path>
<path d="M2220 419.5 L937.8275550464759 419.5 A15 15 0 0 1 937.8275550464759 450.5 L2220 450.5" fill="#fff" transform="matrix(1,0,0,1,10.381196975708008,0)" style="transform:matrix(1, 0, 0, 1, 10.3812, 0);animation-play-state:running" ></path>
<path d="M1976.5021809356463 419.5 L2003.0043618712925 419.5 A15 15 0 0 1 2003.0043618712925 450.5 L1976.5021809356463 450.5 A15 15 0 0 1 1976.5021809356463 419.5" fill="#000" transform="matrix(1,0,0,1,-1704.338623046875,0)" opacity="0.0892851" style="transform:matrix(1, 0, 0, 1, -1704.34, 0);opacity:0.0892851;animation-play-state:running" ></path>
<path d="M2220 449.5 L915.5409961557499 449.5 A15 15 0 0 0 915.5409961557499 480.5 L2220 480.5" fill="#fff" transform="matrix(1,0,0,1,-18.62758445739746,0)" style="transform:matrix(1, 0, 0, 1, -18.6276, 0);animation-play-state:running" ></path>
<path d="M1000.8266904404139 449.5 L1016.1663212816097 449.5 A15 15 0 0 1 1016.1663212816097 480.5 L1000.8266904404139 480.5 A15 15 0 0 1 1000.8266904404139 449.5" fill="#fff" transform="matrix(1,0,0,1,0,0)" opacity="0.848214" style="transform:matrix(1, 0, 0, 1, 0, 0);opacity:0.848214;animation-play-state:running" ></path>
<path d="M2220 479.5 L954.4201514895092 479.5 A15 15 0 0 1 954.4201514895092 510.5 L2220 510.5" fill="#fff" transform="matrix(1,0,0,1,5.7930736596656374e-11,0)" style="transform:matrix(1, 0, 0, 1, 5.79307e-11, 0);animation-play-state:running" ></path>
<path d="M1985.4147293851556 479.5 L2020.8294587703112 479.5 A15 15 0 0 1 2020.8294587703112 510.5 L1985.4147293851556 510.5 A15 15 0 0 1 1985.4147293851556 479.5" fill="#000" transform="matrix(1,0,0,1,0,0)" opacity="1" style="transform:matrix(1, 0, 0, 1, 0, 0);animation-play-state:running" ></path>
<path d="M2220 509.5 L918.2291311430122 509.5 A15 15 0 0 0 918.2291311430122 540.5 L2220 540.5" fill="#fff" transform="matrix(1,0,0,1,-1.4983071088790894,0)" style="transform:matrix(1, 0, 0, 1, -1.49831, 0);animation-play-state:running" ></path>
<path d="M1023.8684226050343 509.5 L1042.7964611660905 509.5 A15 15 0 0 1 1042.7964611660905 540.5 L1023.8684226050343 540.5 A15 15 0 0 1 1023.8684226050343 509.5" fill="#fff" transform="matrix(1,0,0,1,0,0)" opacity="0.580357" style="transform:matrix(1, 0, 0, 1, 0, 0);opacity:0.580357;animation-play-state:running" ></path>
<path d="M2220 539.5 L944.8801709529819 539.5 A15 15 0 0 1 944.8801709529819 570.5 L2220 570.5" fill="#fff" transform="matrix(1,0,0,1,12.64310359954834,0)" style="transform:matrix(1, 0, 0, 1, 12.6431, 0);animation-play-state:running" ></path>
<path d="M1982.1656303214017 539.5 L2014.3312606428035 539.5 A15 15 0 0 1 2014.3312606428035 570.5 L1982.1656303214017 570.5 A15 15 0 0 1 1982.1656303214017 539.5" fill="#000" transform="matrix(1,0,0,1,-656.881591796875,0)" opacity="0.892857" style="transform:matrix(1, 0, 0, 1, -656.882, 0);opacity:0.892857;animation-play-state:running" ></path>
<path d="M2220 569.5 L933.1061657746108 569.5 A15 15 0 0 0 933.1061657746108 600.5 L2220 600.5" fill="#fff" transform="matrix(1,0,0,1,-7.182216644287109,0)" style="transform:matrix(1, 0, 0, 1, -7.18222, 0);animation-play-state:running" ></path>
<path d="M1029.4098844285372 569.5 L1068.532825630268 569.5 A15 15 0 0 1 1068.532825630268 600.5 L1029.4098844285372 600.5 A15 15 0 0 1 1029.4098844285372 569.5" fill="#fff" transform="matrix(1,0,0,1,0,0)" opacity="0.937499" style="transform:matrix(1, 0, 0, 1, 0, 0);opacity:0.937499;animation-play-state:running" ></path>
<path d="M2220 599.5 L981.4604407475168 599.5 A15 15 0 0 1 981.4604407475168 630.5 L2220 630.5" fill="#fff" transform="matrix(1,0,0,1,22.410181045532227,0)" style="transform:matrix(1, 0, 0, 1, 22.4102, 0);animation-play-state:running" ></path>
<path d="M1984.534580281196 599.5 L2019.069160562392 599.5 A15 15 0 0 1 2019.069160562392 630.5 L1984.534580281196 630.5 A15 15 0 0 1 1984.534580281196 599.5" fill="#000" transform="matrix(1,0,0,1,-1538.410888671875,0)" opacity="0.357143" style="transform:matrix(1, 0, 0, 1, -1538.41, 0);opacity:0.357143;animation-play-state:running" ></path>
<path d="M2220 629.5 L944.4058598187544 629.5 A15 15 0 0 0 944.4058598187544 660.5 L2220 660.5" fill="#fff" transform="matrix(1,0,0,1,-39.3757209777832,0)" style="transform:matrix(1, 0, 0, 1, -39.3757, 0);animation-play-state:running" ></path>
<path d="M1045.9626224247877 629.5 L1074.0430423961548 629.5 A15 15 0 0 1 1074.0430423961548 660.5 L1045.9626224247877 660.5 A15 15 0 0 1 1045.9626224247877 629.5" fill="#fff" transform="matrix(1,0,0,1,0,0)" opacity="0.0446429" style="transform:matrix(1, 0, 0, 1, 0, 0);opacity:0.0446429;animation-play-state:running" ></path>
<path d="M2220 659.5 L987.351371471405 659.5 A15 15 0 0 1 987.351371471405 690.5 L2220 690.5" fill="#fff" transform="matrix(1,0,0,1,23.39175796508789,0)" style="transform:matrix(1, 0, 0, 1, 23.3918, 0);animation-play-state:running" ></path>
<path d="M1972.2296168519304 659.5 L1994.4592337038607 659.5 A15 15 0 0 1 1994.4592337038607 690.5 L1972.2296168519304 690.5 A15 15 0 0 1 1972.2296168519304 659.5" fill="#000" transform="matrix(1,0,0,1,-257.67303466796875,0)" opacity="1" style="transform:matrix(1, 0, 0, 1, -257.673, 0);animation-play-state:running" ></path>
<path d="M2220 689.5 L952.1166029012591 689.5 A15 15 0 0 0 952.1166029012591 720.5 L2220 720.5" fill="#fff" transform="matrix(1,0,0,1,-11.820632934570312,0)" style="transform:matrix(1, 0, 0, 1, -11.8206, 0);animation-play-state:running" ></path>
<path d="M1025.7963025620957 689.5 L1040.2905059282384 689.5 A15 15 0 0 1 1040.2905059282384 720.5 L1025.7963025620957 720.5 A15 15 0 0 1 1025.7963025620957 689.5" fill="#fff" transform="matrix(1,0,0,1,0,0)" opacity="0.982143" style="transform:matrix(1, 0, 0, 1, 0, 0);opacity:0.982143;animation-play-state:running" ></path>
<path d="M2220 719.5 L986.3509935660516 719.5 A15 15 0 0 1 986.3509935660516 750.5 L2220 750.5" fill="#fff" transform="matrix(1,0,0,1,0,0)" style="transform:matrix(1, 0, 0, 1, 0, 0);animation-play-state:running" ></path>
<path d="M1966.3636629857938 719.5 L1982.7273259715876 719.5 A15 15 0 0 1 1982.7273259715876 750.5 L1966.3636629857938 750.5 A15 15 0 0 1 1966.3636629857938 719.5" fill="#000" transform="matrix(1,0,0,1,-947.513427734375,0)" opacity="0.714286" style="transform:matrix(1, 0, 0, 1, -947.513, 0);opacity:0.714286;animation-play-state:running" ></path>
<path d="M2220 749.5 L941.0100809039245 749.5 A15 15 0 0 0 941.0100809039245 780.5 L2220 780.5" fill="#fff" transform="matrix(1,0,0,1,-46.609825134277344,0)" style="transform:matrix(1, 0, 0, 1, -46.6098, 0);animation-play-state:running" ></path>
<path d="M1019.4754293712361 749.5 L1045.8185572319608 749.5 A15 15 0 0 1 1045.8185572319608 780.5 L1019.4754293712361 780.5 A15 15 0 0 1 1019.4754293712361 749.5" fill="#fff" transform="matrix(1,0,0,1,0,0)" opacity="0.9375" style="transform:matrix(1, 0, 0, 1, 0, 0);opacity:0.9375;animation-play-state:running" ></path>
<path d="M2220 779.5 L988.8871534972412 779.5 A15 15 0 0 1 988.8871534972412 810.5 L2220 810.5" fill="#fff" transform="matrix(1,0,0,1,27.675825119018555,0)" style="transform:matrix(1, 0, 0, 1, 27.6758, 0);animation-play-state:running" ></path>
<path d="M1985.8486395869809 779.5 L2021.6972791739618 779.5 A15 15 0 0 1 2021.6972791739618 810.5 L1985.8486395869809 810.5 A15 15 0 0 1 1985.8486395869809 779.5" fill="#000" transform="matrix(1,0,0,1,-1404.5611572265625,0)" opacity="0.178571" style="transform:matrix(1, 0, 0, 1, -1404.56, 0);opacity:0.178571;animation-play-state:running" ></path>
<path d="M2220 809.5 L954.0235854944958 809.5 A15 15 0 0 0 954.0235854944958 840.5 L2220 840.5" fill="#fff" transform="matrix(1,0,0,1,-1.8849657773971558,0)" style="transform:matrix(1, 0, 0, 1, -1.88497, 0);animation-play-state:running" ></path>
<path d="M1029.5801049152515 809.5 L1060.4514840672107 809.5 A15 15 0 0 1 1060.4514840672107 840.5 L1029.5801049152515 840.5 A15 15 0 0 1 1029.5801049152515 809.5" fill="#fff" transform="matrix(1,0,0,1,0,0)" opacity="0.669643" style="transform:matrix(1, 0, 0, 1, 0, 0);opacity:0.669643;animation-play-state:running" ></path>
<path d="M2220 839.5 L982.3285446343547 839.5 A15 15 0 0 1 982.3285446343547 870.5 L2220 870.5" fill="#fff" transform="matrix(1,0,0,1,14.819147109985352,0)" style="transform:matrix(1, 0, 0, 1, 14.8191, 0);animation-play-state:running" ></path>
<path d="M1968.827754413956 839.5 L1987.655508827912 839.5 A15 15 0 0 1 1987.655508827912 870.5 L1968.827754413956 870.5 A15 15 0 0 1 1968.827754413956 839.5" fill="#000" transform="matrix(1,0,0,1,-550.6396484375,0)" opacity="1" style="transform:matrix(1, 0, 0, 1, -550.64, 0);animation-play-state:running" ></path>
<path d="M2220 869.5 L919.4554508274873 869.5 A15 15 0 0 0 919.4554508274873 900.5 L2220 900.5" fill="#fff" transform="matrix(1,0,0,1,-11.361346244812012,0)" style="transform:matrix(1, 0, 0, 1, -11.3613, 0);animation-play-state:running" ></path>
<path d="M1055.7384038138823 869.5 L1073.5685938855684 869.5 A15 15 0 0 1 1073.5685938855684 900.5 L1055.7384038138823 900.5 A15 15 0 0 1 1055.7384038138823 869.5" fill="#fff" transform="matrix(1,0,0,1,0,0)" opacity="1" style="transform:matrix(1, 0, 0, 1, 0, 0);animation-play-state:running" ></path>
<path d="M2220 899.5 L964.1043123966828 899.5 A15 15 0 0 1 964.1043123966828 930.5 L2220 930.5" fill="#fff" transform="matrix(1,0,0,1,22.51069450378418,0)" style="transform:matrix(1, 0, 0, 1, 22.5107, 0);animation-play-state:running" ></path>
<path d="M1975.5646101220655 899.5 L2001.129220244131 899.5 A15 15 0 0 1 2001.129220244131 930.5 L1975.5646101220655 930.5 A15 15 0 0 1 1975.5646101220655 899.5" fill="#000" transform="matrix(1,0,0,1,-1700.11474609375,0)" opacity="0.267857" style="transform:matrix(1, 0, 0, 1, -1700.11, 0);opacity:0.267857;animation-play-state:running" ></path>
<path d="M2220 929.5 L925.5196182271044 929.5 A15 15 0 0 0 925.5196182271044 960.5 L2220 960.5" fill="#fff" transform="matrix(1,0,0,1,-33.73475646972656,0)" style="transform:matrix(1, 0, 0, 1, -33.7348, 0);animation-play-state:running" ></path>
<path d="M996.0012650843331 929.5 L1027.5953385722826 929.5 A15 15 0 0 1 1027.5953385722826 960.5 L996.0012650843331 960.5 A15 15 0 0 1 996.0012650843331 929.5" fill="#fff" transform="matrix(1,0,0,1,0,0)" opacity="0.401784" style="transform:matrix(1, 0, 0, 1, 0, 0);opacity:0.401784;animation-play-state:running" ></path></g></mask></defs>


<rect x="0" y="0" width="1920" height="947" fill="url(#ldbk-photon-okp084bm5ig-lg)" mask="url(#ldbk-photon-okp084bm5ig-mask)" style="animation-play-state:running" ></rect></g></svg>