<?xml version="1.0" encoding="utf-8"?>
<svg xmlns="http://www.w3.org/2000/svg" xmlns:xlink="http://www.w3.org/1999/xlink" 
width="1902" height="938"
 preserveAspectRatio="xMidYMid" 
 viewBox="0 0 1902 938" 
    style="z-index:1;margin-right:-2px;display:block;background-repeat-y:initial;background-repeat-x:initial;background-color:rgba(241, 242, 243,0);animation-play-state: running" >
   <style type="text/css" style="animation-play-state:running" >
  
        /* <!-- @keyframes ld3 {
            0% { d: path("M -100 803.13 C 8.64 785.57 10.4 873.04 113.4 873.04 S 224.1 871.88 326.8 871.88 S 437.54 894.81 540.2 894.81 S 648.58 907.38 753.6 907.38 S 864.19 891.08 967.01 891.08 S 1075.35 789.1 1180.41 789.1 S 1290.95 893.73 1393.81 893.73 S 1501.7 792.44 1607.21 792.44 S 1714.86 903.22 1820.61 903.22 S 1928.55 812.37 2034.01 812.37 L 2002 938 L -100 938 Z"); }
            50% {  d: path("M 100 1803.13 C 18.64 1785.57 110.4 1873.04 1113.4 1873.04 S 1224.1 1871.88 1326.8 1871.88 S 1437.54 1894.81 1540.2 1894.81 S 1648.58 1907.38 1753.6 1907.38 S 1864.19 1891.08 1967.01 1891.08 S 11075.35 1789.1 11180.41 1789.1 S 11290.95 1893.73 11393.81 1893.73 S 11501.7 1792.44 11607.21 1792.44 S 11714.86 1903.22 1820.61 1903.22 S 11928.55 1812.37 12034.01 1812.37 L 12002 1938 L 100 1938 Z"); }
            100% {  d: path("M -100 803.13 C 8.64 785.57 10.4 873.04 113.4 873.04 S 224.1 871.88 326.8 871.88 S 437.54 894.81 540.2 894.81 S 648.58 907.38 753.6 907.38 S 864.19 891.08 967.01 891.08 S 1075.35 789.1 1180.41 789.1 S 1290.95 893.73 1393.81 893.73 S 1501.7 792.44 1607.21 792.44 S 1714.86 903.22 1820.61 903.22 S 1928.55 812.37 2034.01 812.37 L 2002 938 L -100 938 Z"); }
        }
        .ls.ld-speed-dash{
            animation: ld3 7s linear infinite;
        } --> */
        @keyframes ld-speed-dash {
            0% { transform: translateX(-30px); }
            50% { transform: translateX(30px); }
            100% { transform: translate(-30px); }
        }
        .ld.ld-speed-dash {
            animation: ld-speed-dash 18s linear infinite;
        }
  </style>
  <g class="ld ld-speed-dash" transform="translate(951,469) scale(1,1) translate(-951,-469)" style="transform:matrix(1, 0, 0, 1, 0, 0);animation-play-state: running" >
    <path class="ld ld-speed-dash" d="M -100 713 C -0.54 724.17 0.68 709.99 92.84 709.99 S 191.61 648.72 285.69 648.72 S 382.96 666.51 478.53 666.51 S 575.34 656.53 671.38 656.53 S 767.81 703.43 864.22 703.43 S 963.02 655.58 1057.06 655.58 S 1153.61 685.66 1249.91 685.66 S 1350.57 688.31 1442.75 688.31 S 1539.43 675.79 1635.6 675.79 S 1735.63 654.51 1828.44 654.51 S 1927.39 739.1 2021.28 739.1 L 2002 938 L -100 938 Z" fill="#8687af" stroke-width="0" transform="matrix(1,0,0,1,8.86598014831543,0)" style="transform:matrix(1, 0, 0, 1, 8.86598, 0);animation-duration:8s;animation-play-state: running" ></path>
    <path class="ld ld-speed-dash" d="M -100 712.28 C -0.22 720.33 0.74 788.8 99.24 788.8 S 199.54 719.52 298.48 719.52 S 398.25 763.75 497.73 763.75 S 600.21 694.68 696.97 694.68 S 799.24 766.27 896.21 766.27 S 997.4 726.27 1095.45 726.27 S 1197.92 778.64 1294.69 778.64 S 1397.3 695.1 1493.93 695.1 S 1593.75 772.6 1693.18 772.6 S 1794.38 698.23 1892.42 698.23 S 1996.25 777.69 2091.66 777.69 L 2002 938 L -100 938 Z" fill="#9595c4" stroke-width="0" transform="matrix(1,0,0,1,6.4136857986450195,0)" style="transform:matrix(1, 0, 0, 1, 6.41369, 0);animation-duration:13s;animation-play-state: running" ></path>
    <path class="ld ld-speed-dash" d="M -100 852.04 C 5.27 853.06 3.1 815.77 106.08 815.77 S 211.39 771.01 312.16 771.01 S 418.37 833.35 518.24 833.35 S 624.68 771.3 724.31 771.3 S 828.36 761.37 930.39 761.37 S 1033.47 844.61 1136.47 844.61 S 1243.45 833.41 1342.55 833.41 S 1445.89 774.72 1548.63 774.72 S 1655.67 855.2 1754.71 855.2 S 1860.54 741.49 1960.78 741.49 S 2065.56 837.44 2166.86 837.44 L 2002 938 L -100 938 Z" fill="#a5a4d8" stroke-width="0" transform="matrix(1,0,0,1,3.5863142013549805,0)" style="transform:matrix(1, 0, 0, 1, 3.58631, 0);animation-duration:18s;animation-play-state: running" ></path>
    <path class="ld ld-speed-dash" d="M -100 803.13 C 8.64 785.57 10.4 873.04 113.4 873.04 S 224.1 871.88 326.8 871.88 S 437.54 894.81 540.2 894.81 S 648.58 907.38 753.6 907.38 S 864.19 891.08 967.01 891.08 S 1075.35 789.1 1180.41 789.1 S 1290.95 893.73 1393.81 893.73 S 1501.7 792.44 1607.21 792.44 S 1714.86 903.22 1820.61 903.22 S 1928.55 812.37 2034.01 812.37 L 2002 938 L -100 938 Z" fill="#b6b3ed" stroke-width="0" transform="matrix(1,0,0,1,1.1340179443359375,0)" style="transform:matrix(1, 0, 0, 1, 1.13402, 0);animation-duration:11s;animation-play-state: running;" ></path>
  </g>
</svg>