<?xml version="1.0" standalone="no"?>
<!DOCTYPE svg PUBLIC "-//W3C//DTD SVG 20010904//EN"
 "http://www.w3.org/TR/2001/REC-SVG-20010904/DTD/svg10.dtd">
<svg version="1.0" xmlns="http://www.w3.org/2000/svg"
 width="1280.000000pt" height="1177.000000pt" viewBox="0 0 1280.000000 1177.000000"
 preserveAspectRatio="xMidYMid meet">
<g transform="translate(0.000000,1177.000000) scale(0.100000,-0.100000)"
fill="#000000" stroke="none">
<path d="M8185 11760 c-36 -12 -68 -38 -84 -67 -12 -23 -18 -72 -160 -1158
-50 -379 -167 -1277 -261 -1995 -274 -2096 -343 -2625 -460 -3520 -60 -465
-112 -861 -116 -881 l-5 -37 -797 5 c-1105 8 -1832 -16 -2697 -87 -996 -82
-1814 -202 -3163 -464 -323 -62 -388 -78 -408 -97 -29 -27 -40 -79 -23 -110
38 -74 326 -493 458 -669 84 -113 215 -288 289 -390 321 -440 568 -709 837
-911 278 -210 636 -441 980 -633 165 -92 620 -319 790 -393 l140 -61 320 -41
c970 -124 1760 -188 2850 -233 395 -16 1743 -16 2125 0 924 39 1779 117 2005
183 215 63 458 242 816 599 223 222 307 325 521 635 84 121 157 225 164 230
20 18 474 675 484 701 16 41 12 71 -15 102 -18 22 -177 106 -556 297 -426 214
-529 270 -525 283 2 9 8 33 11 52 4 19 24 107 46 196 58 240 57 245 -68 316
l-78 43 -410 6 c-225 4 -554 7 -731 8 l-320 1 -105 35 c-173 59 -537 163 -829
237 l-275 69 -410 24 c-225 13 -536 29 -690 35 -154 7 -282 14 -284 16 -5 4 7
94 149 1179 163 1246 327 2502 386 2955 31 234 57 426 58 427 1 1 26 -7 55
-18 88 -33 186 -49 303 -49 199 0 361 45 814 229 370 150 547 187 776 161 213
-23 354 -75 656 -240 41 -22 86 -40 102 -40 33 0 85 40 93 72 3 13 70 446 147
963 78 517 163 1086 190 1264 42 276 47 328 37 357 -18 51 -195 207 -282 250
-263 128 -802 95 -1159 -70 -94 -43 -188 -104 -296 -191 -145 -117 -276 -164
-456 -165 -104 0 -218 19 -331 56 -93 30 -283 121 -289 139 -3 7 2 67 11 133
14 110 14 125 0 151 -19 38 -69 76 -126 96 -55 20 -164 28 -204 15z"/>
</g>
</svg>
