<?xml version="1.0" encoding="utf-8"?>
<svg xmlns="http://www.w3.org/2000/svg" style="margin: auto; background: rgb(255, 251, 243); display: block; shape-rendering: auto;" width="280" height="250" preserveAspectRatio="xMidYMid">
<style type="text/css">
  text {
    text-anchor: middle; font-size: 80px; opacity: 0;
  }
</style>
<g style="transform-origin:140px 125px;transform:scale(1)">
<g transform="translate(140,125)">
  <g transform="translate(0,0)"><g class="path" style="transform: scale(0.91); transform-origin: -84.96px 2.96594px; animation: 1s linear -0.565714s infinite normal forwards running breath-479250a2-e9cc-4d1f-b383-31f60acb9e57;"><path d="M83.44 3.28L83.44 3.28L83.44 3.28Q85.52 3.28 87.44 1.04L87.44 1.04L88.64 2L88.64 2Q88.40 2.32 88 2.80L88 2.80L88 2.80Q87.60 3.28 86.04 4.08L86.04 4.08L86.04 4.08Q84.48 4.88 82.64 4.88L82.64 4.88L82.64 4.88Q73.68 4.88 73.68-2.88L73.68-2.88L73.68-2.88Q73.68-5.28 74.24-10L74.24-10L74.24-10Q70.40-8.80 67.36-8.80L67.36-8.80L67.36-8.80Q62-8.80 56.64-12.08L56.64-12.08L56.64-12.08Q53.52-6.72 50.80-2.92L50.80-2.92L50.80-2.92Q48.08 0.88 44.48 4.48L44.48 4.48L44.48 4.48Q37.04 11.76 26.52 11.76L26.52 11.76L26.52 11.76Q16 11.76 9.76 5.04L9.76 5.04L9.76 5.04Q4.24-1.12 4.24-9.96L4.24-9.96L4.24-9.96Q4.24-18.80 9.92-25.68L9.92-25.68L9.92-25.68Q15.60-32.56 24.64-32.56L24.64-32.56L24.64-32.56Q33.68-32.56 38.40-27.20L38.40-27.20L38.40-27.20Q39.52-25.76 40-25.04L40-25.04L40-25.04Q44.32-23.20 49.84-18.96L49.84-18.96L49.84-18.96Q54-15.60 56-14.32L56-14.32L56-14.32Q57.12-16.40 59.08-19.92L59.08-19.92L59.08-19.92Q61.04-23.44 62.08-25.28L62.08-25.28L62.08-25.28Q63.12-27.12 65.20-30.48L65.20-30.48L65.20-30.48Q67.28-33.84 68.60-35.56L68.60-35.56L68.60-35.56Q69.92-37.28 72.12-39.88L72.12-39.88L72.12-39.88Q74.32-42.48 76.16-43.76L76.16-43.76L76.16-43.76Q81.68-47.68 85.44-48.32L85.44-48.32L85.44-48.32Q87.52-48.64 88.96-48.64L88.96-48.64L88.96-48.64Q90.40-48.64 92.16-48.60L92.16-48.60L92.16-48.60Q93.92-48.56 97.12-47.68L97.12-47.68L96.72-46.16L96.72-46.16Q94.80-46.72 92.64-46.96L92.64-46.96L92.64-46.96Q84.64-15.52 83.44 3.28zM42.56-15.76L42.56-15.76L42.56-15.76Q42.56-9.84 39.16-5.28L39.16-5.28L39.16-5.28Q35.76-0.72 30-0.72L30-0.72L30-0.72Q26.24-0.72 23.88-2.96L23.88-2.96L23.88-2.96Q21.52-5.20 21.52-7.60L21.52-7.60L21.52-7.60Q21.52-10 22.24-11.56L22.24-11.56L22.24-11.56Q22.96-13.12 23.88-13.92L23.88-13.92L23.88-13.92Q24.80-14.72 25.92-15.20L25.92-15.20L25.92-15.20Q27.44-16 28.32-16L28.32-16L28.48-14.40L28.48-14.40Q26.48-14.40 24.80-12.48L24.80-12.48L24.80-12.48Q23.12-10.56 23.12-8.16L23.12-8.16L23.12-8.16Q23.12-5.76 25-4.04L25-4.04L25-4.04Q26.88-2.32 30-2.32L30-2.32L30-2.32Q35.12-2.32 38.08-6.32L38.08-6.32L38.08-6.32Q41.04-10.32 41.04-15.20L41.04-15.20L41.04-15.20Q41.04-20.08 39.04-23.68L39.04-23.68L39.04-23.68Q34.64-25.36 30.32-25.36L30.32-25.36L30.32-25.36Q22-25.36 18.56-17.60L18.56-17.60L17.04-18.08L17.04-18.08Q17.92-20.08 19.84-22.40L19.84-22.40L19.84-22.40Q23.60-26.96 30.32-26.96L30.32-26.96L30.32-26.96Q33.92-26.96 37.44-25.92L37.44-25.92L37.28-26.16L37.28-26.16Q32.88-30.96 24.60-30.96L24.60-30.96L24.60-30.96Q16.32-30.96 11.08-24.56L11.08-24.56L11.08-24.56Q5.84-18.16 5.84-9.88L5.84-9.88L5.84-9.88Q5.84-1.60 10.96 3.92L10.96 3.92L10.96 3.92Q16.72 10.16 27.04 10.16L27.04 10.16L27.04 10.16Q36.48 10.16 43.52 3.04L43.52 3.04L43.52 3.04Q47.04-0.40 49.64-4.08L49.64-4.08L49.64-4.08Q52.24-7.76 55.28-12.96L55.28-12.96L55.28-12.96Q52.56-14.72 48.68-17.80L48.68-17.80L48.68-17.80Q44.80-20.88 41.20-22.72L41.20-22.72L41.20-22.72Q42.56-19.36 42.56-15.76zM60.48-18.96L57.44-13.44L57.44-13.44Q62.56-10.40 66.84-10.40L66.84-10.40L66.84-10.40Q71.12-10.40 74.48-11.76L74.48-11.76L74.48-11.76Q76.40-25.28 81.68-45.36L81.68-45.36L81.68-45.36Q75.28-42.32 69.92-34.56L69.92-34.56L69.92-34.56Q66-28.96 60.48-18.96L60.48-18.96" fill="#51cacc" stroke="none" stroke-width="none" transform="translate(-135.6400146484375,21.4059432547433)" style="fill: rgb(81, 202, 204);"></path></g><g class="path" style="transform: scale(0.91); transform-origin: -27.44px -4.15406px; animation: 1s linear -0.471429s infinite normal forwards running breath-479250a2-e9cc-4d1f-b383-31f60acb9e57;"><path d="M111.28-2.88L111.28-2.88L111.28-2.88Q110.24-1.52 108.44-0.40L108.44-0.40L108.44-0.40Q106.64 0.72 103.76 0.72L103.76 0.72L103.76 0.72Q100.88 0.72 98.88-1.12L98.88-1.12L98.88-1.12Q96.88-2.96 96.88-6.32L96.88-6.32L96.88-6.32Q96.88-6.96 97.04-8.40L97.04-8.40L102.24-37.20L102.24-37.20Q103.68-45.12 106.20-48.48L106.20-48.48L106.20-48.48Q108.72-51.84 112.88-51.84L112.88-51.84L112.88-51.84Q115.76-51.84 117.64-49.68L117.64-49.68L117.64-49.68Q119.52-47.52 119.52-43.12L119.52-43.12L119.52-43.12Q119.52-38.72 116.12-30.56L116.12-30.56L116.12-30.56Q112.72-22.40 112.72-18.64L112.72-18.64L111.28-18.64L111.28-18.64Q111.28-22.88 114.64-30.76L114.64-30.76L114.64-30.76Q118-38.64 118-43.36L118-43.36L118-43.36Q118-46.24 116.68-48.32L116.68-48.32L116.68-48.32Q115.36-50.40 113.44-50.40L113.44-50.40L113.44-50.40Q113.36-48.32 110.68-31.72L110.68-31.72L110.68-31.72Q108-15.12 105.36-0.88L105.36-0.88L105.36-0.88Q107.60-0.88 109.52-3.20L109.52-3.20L109.52-3.20Q111.44-5.52 112.24-7.84L112.24-7.84L113.12-10.24L114.56-9.60L114.56-9.60Q114.32-8.48 113.32-6.36L113.32-6.36L113.32-6.36Q112.32-4.24 111.28-2.88" fill="#51cacc" stroke="none" stroke-width="none" transform="translate(-135.6400146484375,21.4059432547433)" style="fill: rgb(157, 248, 113);"></path></g><g class="path" style="transform: scale(0.91); transform-origin: 0.839981px 13.2059px; animation: 1s linear -0.377143s infinite normal forwards running breath-479250a2-e9cc-4d1f-b383-31f60acb9e57;"><path d="M123.84-29.52L123.84-29.52L123.84-29.52Q121.92-29.52 119.84-27.28L119.84-27.28L118.64-28.24L118.64-28.24Q119.20-29.36 121.12-30.24L121.12-30.24L121.12-30.24Q123.04-31.12 125.36-31.12L125.36-31.12L125.36-31.12Q132.64-31.12 132.64-24.56L132.64-24.56L132.64-24.56Q132.64-21.76 131.12-15.40L131.12-15.40L131.12-15.40Q129.60-9.04 129.60-6.80L129.60-6.80L129.60-6.80Q129.60-2.96 132.80-2.96L132.80-2.96L132.80-2.96Q135.44-2.96 137.96-6.56L137.96-6.56L137.96-6.56Q140.48-10.16 142.08-16.24L142.08-16.24L144.72-30.40L144.72-30.40Q150.64-30.40 153.36-30.88L153.36-30.88L154.40-31.12L149.36-2.80L149.36-2.80Q147.92 5.44 142.68 10.08L142.68 10.08L142.68 10.08Q137.44 14.72 129.12 14.72L129.12 14.72L129.12 14.72Q124.08 14.72 121.32 13L121.32 13L121.32 13Q118.56 11.28 118.56 8.52L118.56 8.52L118.56 8.52Q118.56 5.76 120.24 4.12L120.24 4.12L120.24 4.12Q121.92 2.48 125 2.48L125 2.48L125 2.48Q128.08 2.48 130.72 3.48L130.72 3.48L130.72 3.48Q133.36 4.48 134.56 4.64L134.56 4.64L134.40 6.08L134.40 6.08Q133.04 5.92 130.48 4.96L130.48 4.96L130.48 4.96Q127.92 4 125.40 4L125.40 4L125.40 4Q122.88 4 121.56 5.12L121.56 5.12L121.56 5.12Q120.24 6.24 120.24 8.36L120.24 8.36L120.24 8.36Q120.24 10.48 122.56 11.80L122.56 11.80L122.56 11.80Q124.88 13.12 128.32 13.12L128.32 13.12L128.32 13.12Q136.64 13.12 138.56 3.12L138.56 3.12L140.56-7.92L140.56-7.92Q137.20-0.56 130.40-0.56L130.40-0.56L130.40-0.56Q125.76-0.56 123.24-3.20L123.24-3.20L123.24-3.20Q120.72-5.84 120.72-10.64L120.72-10.64L120.72-10.64Q120.72-13.12 122.20-19.56L122.20-19.56L122.20-19.56Q123.68-26 123.84-29.52" fill="#51cacc" stroke="none" stroke-width="none" transform="translate(-135.6400146484375,21.4059432547433)" style="fill: rgb(224, 255, 119);"></path></g><g class="path" style="transform: scale(0.91); transform-origin: 37.84px -3.43406px; animation: 1s linear -0.282857s infinite normal forwards running breath-479250a2-e9cc-4d1f-b383-31f60acb9e57;"><path d="M172.08 0.72L172.08 0.72L172.08 0.72Q167.04 0.72 164.72-2.64L164.72-2.64L158 2.16L156.48 2.16L165.44-50.24L165.44-50.24Q163.04-50 161.44-48L161.44-48L160.24-48.96L160.24-48.96Q162.64-51.84 166.28-51.84L166.28-51.84L166.28-51.84Q169.92-51.84 171.92-50L171.92-50L171.92-50Q173.92-48.16 173.92-44.80L173.92-44.80L173.92-44.80Q173.92-44.16 173.76-42.72L173.76-42.72L173.76-42.72Q172.48-35.60 170.64-25.60L170.64-25.60L170.64-25.60Q174-31.04 179.36-31.04L179.36-31.04L179.36-31.04Q184.72-31.04 187.60-27.96L187.60-27.96L187.60-27.96Q190.48-24.88 190.48-19.52L190.48-19.52L190.48-19.52Q190.48-10.08 185.36-4.68L185.36-4.68L185.36-4.68Q180.24 0.72 172.08 0.72zM171.52-1.44L171.52-1.44L171.52-1.44Q175.92-1.44 178.68-7.56L178.68-7.56L178.68-7.56Q181.44-13.68 181.44-22.80L181.44-22.80L181.44-22.80Q181.44-26.48 180.68-27.84L180.68-27.84L180.68-27.84Q179.92-29.20 177.92-29.20L177.92-29.20L177.92-29.20Q175.92-29.20 173.80-26.80L173.80-26.80L173.80-26.80Q171.68-24.40 170.72-22.28L170.72-22.28L170.72-22.28Q169.76-20.16 169.76-19.84L169.76-19.84L169.60-19.84L169.60-19.84Q167.60-9.36 166.64-4L166.64-4L166.64-4Q168-1.44 171.52-1.44" fill="#51cacc" stroke="none" stroke-width="none" transform="translate(-135.6400146484375,21.4059432547433)" style="fill: rgb(222, 157, 214);"></path></g><g class="path" style="transform: scale(0.91); transform-origin: 72.52px 6.20594px; animation: 1s linear -0.188571s infinite normal forwards running breath-479250a2-e9cc-4d1f-b383-31f60acb9e57;"><path d="M211.68-31.12L211.68-31.12L211.68-31.12Q221.84-31.12 221.84-23.04L221.84-23.04L221.84-23.04Q221.84-18 217.08-15.40L217.08-15.40L217.08-15.40Q212.32-12.80 203.52-12.72L203.52-12.72L203.52-12.72Q203.36-9.84 203.36-8.16L203.36-8.16L203.36-8.16Q203.36-4.56 205-2.84L205-2.84L205-2.84Q206.64-1.12 209.12-1.12L209.12-1.12L209.12-1.12Q211.60-1.12 213.64-2.08L213.64-2.08L213.64-2.08Q215.68-3.04 216.88-4.36L216.88-4.36L216.88-4.36Q218.08-5.68 218.96-7.12L218.96-7.12L218.96-7.12Q220.56-9.76 220.56-10.48L220.56-10.48L222-9.84L222-9.84Q221.76-8.56 220.56-6.44L220.56-6.44L220.56-6.44Q219.36-4.32 217.92-2.96L217.92-2.96L217.92-2.96Q216.48-1.60 213.68-0.44L213.68-0.44L213.68-0.44Q210.88 0.72 207.44 0.72L207.44 0.72L207.44 0.72Q200.96 0.72 197.64-2.36L197.64-2.36L197.64-2.36Q194.32-5.44 194.32-10.80L194.32-10.80L194.32-10.80Q194.32-20.32 199.04-25.72L199.04-25.72L199.04-25.72Q203.76-31.12 211.68-31.12zM219.84-23.04L219.84-23.04Q219.84-25.68 218.28-27.40L218.28-27.40L218.28-27.40Q216.72-29.12 213.64-29.12L213.64-29.12L213.64-29.12Q210.56-29.12 207.64-25.44L207.64-25.44L207.64-25.44Q204.72-21.76 203.76-14.56L203.76-14.56L203.76-14.56Q219.84-14.64 219.84-23.04L219.84-23.04" fill="#51cacc" stroke="none" stroke-width="none" transform="translate(-135.6400146484375,21.4059432547433)" style="fill: rgb(255, 112, 142);"></path></g><g class="path" style="transform: scale(0.91); transform-origin: 107.04px -4.15406px; animation: 1s linear -0.0942857s infinite normal forwards running breath-479250a2-e9cc-4d1f-b383-31f60acb9e57;"><path d="M237.68-15.44L237.68-15.44L234.80 0L225.28 0L234.32-50.24L234.32-50.24Q231.92-50 230.32-48L230.32-48L229.12-48.96L229.12-48.96Q231.52-51.84 235.16-51.84L235.16-51.84L235.16-51.84Q238.80-51.84 240.80-50L240.80-50L240.80-50Q242.80-48.16 242.80-44.80L242.80-44.80L242.80-44.80Q242.80-44.16 242.64-42.72L242.64-42.72L242.64-42.72Q240.80-32.56 238.64-20.80L238.64-20.80L238.64-20.80Q240.64-25.68 244.40-28.40L244.40-28.40L244.40-28.40Q248.16-31.12 252.40-31.12L252.40-31.12L252.40-31.12Q256.64-31.12 258.36-29.44L258.36-29.44L258.36-29.44Q260.08-27.76 260.08-25.24L260.08-25.24L260.08-25.24Q260.08-22.72 258.56-21.12L258.56-21.12L258.56-21.12Q257.04-19.52 254.60-19.52L254.60-19.52L254.60-19.52Q252.16-19.52 250.84-20.92L250.84-20.92L250.84-20.92Q249.52-22.32 249.52-25.08L249.52-25.08L249.52-25.08Q249.52-27.84 251.44-29.28L251.44-29.28L251.44-29.28Q243.76-28.40 239.20-17.92L239.20-17.92L239.20-17.92Q240.32-18.08 241.12-18.08L241.12-18.08L241.12-18.08Q245.36-18.08 247.80-16.40L247.80-16.40L247.80-16.40Q250.24-14.72 250.96-12.28L250.96-12.28L250.96-12.28Q251.68-9.84 252-7.40L252-7.40L252-7.40Q252.32-4.96 253.04-3.28L253.04-3.28L253.04-3.28Q253.76-1.60 255.60-1.60L255.60-1.60L255.60-1.60Q257.44-1.60 258.48-3.12L258.48-3.12L259.68-2.16L259.68-2.16Q259.12-1.04 257.20-0.16L257.20-0.16L257.20-0.16Q255.28 0.72 252.28 0.72L252.28 0.72L252.28 0.72Q249.28 0.72 247-0.80L247-0.80L247-0.80Q244.72-2.32 243.84-4.60L243.84-4.60L243.84-4.60Q242.96-6.88 242.40-9.12L242.40-9.12L242.40-9.12Q240.88-14.88 237.68-15.44" fill="#51cacc" stroke="none" stroke-width="none" transform="translate(-135.6400146484375,21.4059432547433)" style="fill: rgb(81, 202, 204);"></path></g><g class="path" style="transform: scale(0.91); transform-origin: 134.08px 16.2459px; animation: 1s linear 0s infinite normal forwards running breath-479250a2-e9cc-4d1f-b383-31f60acb9e57;"><path d="M265.60-1.04L265.60-1.04L265.60-1.04Q263.92-2.72 263.92-5.12L263.92-5.12L263.92-5.12Q263.92-7.52 265.60-9.24L265.60-9.24L265.60-9.24Q267.28-10.96 269.68-10.96L269.68-10.96L269.68-10.96Q272.08-10.96 273.80-9.24L273.80-9.24L273.80-9.24Q275.52-7.52 275.52-5.12L275.52-5.12L275.52-5.12Q275.52-2.72 273.80-1.04L273.80-1.04L273.80-1.04Q272.08 0.64 269.68 0.64L269.68 0.64L269.68 0.64Q267.28 0.64 265.60-1.04" fill="#51cacc" stroke="none" stroke-width="none" transform="translate(-135.6400146484375,21.4059432547433)" style="fill: rgb(157, 248, 113);"></path></g></g>
</g>
</g>
<style id="breath-479250a2-e9cc-4d1f-b383-31f60acb9e57" data-anikit="">@keyframes breath-479250a2-e9cc-4d1f-b383-31f60acb9e57
{
  0% {
    animation-timing-function: cubic-bezier(0.9647,0.2413,-0.0705,0.7911);
    transform: scale(0.9099999999999999);
  }
  51% {
    animation-timing-function: cubic-bezier(0.9226,0.2631,-0.0308,0.7628);
    transform: scale(1.02994);
  }
  100% {
    transform: scale(0.9099999999999999);
  }
}</style></svg>